<svg width="181" height="32" viewBox="0 0 181 32" fill="none" xmlns="http://www.w3.org/2000/svg">
<path d="M29.1462 1.24031V12.8C29.1462 12.8951 29.1462 12.986 29.1441 13.0667V13.0749V13.0832C29.1379 13.414 29.1213 13.7592 29.0922 14.1085C29.0901 14.1251 29.088 14.1395 29.088 14.1561C29.0007 14.9581 28.7825 16.2233 28.2422 17.7364C27.6041 19.5245 26.671 21.2362 25.4697 22.8217L25.4635 22.83C25.4157 22.8899 25.3658 22.9499 25.3076 23.0222L25.3055 23.0243L25.3034 23.0264C24.8358 23.5907 23.9941 24.3452 23.3685 24.8765C22.4998 25.6165 21.4565 26.4393 20.3467 27.2579C18.3349 28.7442 16.4332 29.9824 15.1966 30.6212C13.96 29.9824 12.0584 28.7442 10.0466 27.2579C8.93881 26.4393 7.89342 25.6165 7.02469 24.8765C5.89201 23.9111 5.34749 23.3385 5.08978 23.0264L5.0877 23.0243L5.08562 23.0222C5.03158 22.9581 4.97963 22.892 4.9256 22.8279L4.92352 22.8238C3.72225 21.2382 2.78909 19.5287 2.15105 17.7385C1.61277 16.2295 1.39454 14.9664 1.30517 14.1643C1.30517 14.1519 1.30309 14.1395 1.30101 14.1271C1.26984 13.784 1.25322 13.4346 1.24699 13.0832V13.0791V13.0749C1.24491 12.9943 1.24491 12.9054 1.24491 12.7979V1.24031H29.1462ZM30.3932 0H4.87845e-10C4.87845e-10 0 4.87845e-10 3.62171 4.87845e-10 12.8C4.87845e-10 12.9034 -8.11797e-06 13.0047 0.00207019 13.1059C0.00830512 13.4987 0.0290882 13.8832 0.0644195 14.2594C0.0644195 14.2636 0.0644195 14.2656 0.0644195 14.2698C0.259781 16.0703 1.01629 19.7292 3.92801 23.5721C3.93008 23.5762 3.93424 23.5804 3.93632 23.5845C3.99867 23.663 4.0631 23.7395 4.12545 23.816C5.87746 25.9349 12.4865 30.8093 15.1945 32C17.9026 30.8072 24.5116 25.9328 26.2636 23.816C26.326 23.7395 26.3904 23.663 26.4527 23.5845C26.4548 23.5804 26.459 23.5762 26.461 23.5721C29.3728 19.7292 30.1313 16.0703 30.3246 14.2698C30.3246 14.2656 30.3246 14.2636 30.3267 14.2594C30.36 13.8832 30.3807 13.4987 30.387 13.1059C30.389 13.0047 30.389 12.9034 30.389 12.8C30.3932 3.62171 30.3932 0 30.3932 0Z" fill="#FF8400"/>
<path d="M22.8129 17.9542C22.8129 17.9542 19.5871 19.4734 18.5879 21.0493C15.6547 19.8248 20.5256 17.4893 22.7559 16.9036C22.5811 14.9762 20.7612 13.7518 19.7049 13.1093C18.6487 12.4669 19.2946 11.7073 19.2946 11.7073H24.1655L19.8797 8.98255L20.29 7.96973L19.2338 7.15344V5.34703L18.4283 4.90864C18.4283 4.90864 18.2079 3.55194 18.0332 2.72054C17.5715 2.21564 15.881 1.3521 14.3743 0.6436C13.4013 0.18603 9.20974 0.267892 9.20974 0.267892L0.570313 0.267893L0.570312 16.9036C0.570312 16.9036 3.39384 21.8054 6.06958 24.7868C9.20974 27.5607 15.3887 31.461 15.3887 31.461L15.8333 26.7104L10.0467 21.3705C10.0467 21.3705 10.6052 23.0938 10.9852 24.201C6.11424 22.8859 3.41663 13.5175 10.0163 7.39153C9.66294 12.3535 7.61123 14.4547 10.1911 16.0873C11.2017 16.6201 13.3978 13.85 16.236 12.1343C15.8827 14.6021 11.9502 18.8914 14.2983 21.4007C18.9336 21.4007 20.461 22.8595 21.4565 24.7868C22.6305 24.2048 23.8045 20.6411 23.8045 20.6411L24.0971 23.0333L24.8 22.4513V20.524L22.8129 17.9542ZM3.70158 9.28488L3.39384 6.76798L5.90148 4.66678L7.46304 4.33799L3.70158 9.28488ZM8.52311 2.63363L14.6858 4.60253L13.7626 2.63363L17.942 5.12784L17.5886 6.04616H16.0498L15.3887 5.21476L11.4715 5.74005L8.52311 2.63363ZM12.353 9.94244L13.6752 8.80492L17.0643 8.45347L17.4594 10.1616L18.7817 11.2122H16.7147L12.353 9.94244Z" fill="#FF8400"/>
<path d="M23.9298 17.6176C23.4016 15.8754 23.4662 15.2405 25.4571 14.3638C25.6623 15.3841 24.9214 16.4876 23.9298 17.6176Z" fill="#FF8400"/>
<path d="M18.0675 25.0474L17.2734 25.5122V30.1131H18.0675L19.2986 28.6703V28.0518L18.0675 25.0474Z" fill="#FF8400"/>
<path d="M57.5652 25.5439C56.3806 25.5439 55.196 25.3979 54.0114 25.1058C52.843 24.8137 51.8207 24.3999 50.9444 23.8644L52.697 20.2376C53.3785 20.6919 54.1331 21.0408 54.9607 21.2842C55.8045 21.5276 56.624 21.6493 57.4191 21.6493C58.2467 21.6493 58.9039 21.4952 59.3907 21.1869C59.8776 20.8785 60.121 20.4404 60.121 19.8724C60.121 19.3694 59.9181 18.9718 59.5124 18.6797C59.1068 18.3714 58.4414 18.2173 57.5165 18.2173H55.4962V15.1746L60.0723 10.2334L60.5348 11.8886H51.8207V8.16442H64.1372V11.1827L59.5611 16.1239L57.2 14.7852H58.5145C60.6402 14.7852 62.2467 15.2639 63.334 16.2213C64.4374 17.1625 64.9892 18.3795 64.9892 19.8724C64.9892 20.8461 64.7214 21.7629 64.1859 22.623C63.6666 23.483 62.8634 24.1889 61.7762 24.7406C60.6889 25.2761 59.2853 25.5439 57.5652 25.5439ZM69.0186 25.2031V9.89263L71.0875 11.8886H65.8542V8.16442H73.8381V25.2031H69.0186Z" fill="white"/>
<path d="M82.8793 25.5439C81.4837 25.5439 80.1368 25.3735 78.8387 25.0327C77.5567 24.6757 76.51 24.2214 75.6987 23.6696L77.2808 20.1159C78.0435 20.6027 78.9198 21.0084 79.9097 21.3329C80.9157 21.6412 81.9137 21.7954 82.9036 21.7954C83.5689 21.7954 84.1044 21.7386 84.5101 21.625C84.9158 21.4952 85.2079 21.3329 85.3864 21.1382C85.5811 20.9272 85.6785 20.6838 85.6785 20.4079C85.6785 20.0185 85.5 19.7102 85.143 19.483C84.786 19.2558 84.3235 19.0692 83.7555 18.9231C83.1876 18.7771 82.5547 18.6311 81.8569 18.485C81.1754 18.339 80.4857 18.1523 79.7879 17.9252C79.1064 17.698 78.4816 17.4059 77.9137 17.0489C77.3457 16.6757 76.8833 16.197 76.5263 15.6128C76.1693 15.0124 75.9908 14.2578 75.9908 13.3491C75.9908 12.3267 76.2666 11.4018 76.8183 10.5742C77.3863 9.74659 78.2301 9.08127 79.3498 8.57822C80.4695 8.07517 81.865 7.82365 83.5365 7.82365C84.6562 7.82365 85.7515 7.95347 86.8225 8.21311C87.9097 8.45652 88.8753 8.82163 89.7191 9.30845L88.2343 12.8866C87.4229 12.4484 86.6197 12.1239 85.8245 11.9129C85.0294 11.6858 84.2586 11.5722 83.5121 11.5722C82.8468 11.5722 82.3113 11.6452 81.9056 11.7912C81.4999 11.9211 81.2078 12.0996 81.0293 12.3267C80.8508 12.5539 80.7616 12.8136 80.7616 13.1056C80.7616 13.4789 80.932 13.7791 81.2728 14.0063C81.6298 14.2172 82.0922 14.3957 82.6602 14.5418C83.2444 14.6716 83.8772 14.8095 84.5588 14.9556C85.2566 15.1016 85.9462 15.2882 86.6278 15.5154C87.3255 15.7264 87.9584 16.0185 88.5264 16.3917C89.0943 16.7487 89.5487 17.2274 89.8895 17.8278C90.2465 18.412 90.425 19.1503 90.425 20.0428C90.425 21.0327 90.141 21.9495 89.573 22.7934C89.0213 23.621 88.1856 24.2863 87.0659 24.7893C85.9625 25.2924 84.5669 25.5439 82.8793 25.5439ZM92.6512 25.2031V8.16442H100.44C101.998 8.16442 103.337 8.41595 104.457 8.91899C105.593 9.42204 106.469 10.1523 107.085 11.1097C107.702 12.0509 108.01 13.1706 108.01 14.4687C108.01 15.7507 107.702 16.8623 107.085 17.8035C106.469 18.7446 105.593 19.4749 104.457 19.9942C103.337 20.4972 101.998 20.7487 100.44 20.7487H95.3287L97.4707 18.6554V25.2031H92.6512ZM97.4707 19.1666L95.3287 16.9515H100.148C101.154 16.9515 101.901 16.7325 102.388 16.2943C102.891 15.8562 103.142 15.2477 103.142 14.4687C103.142 13.6736 102.891 13.057 102.388 12.6188C101.901 12.1807 101.154 11.9616 100.148 11.9616H95.3287L97.4707 9.74659V19.1666ZM119.19 25.5439C117.827 25.5439 116.57 25.3248 115.417 24.8867C114.265 24.4486 113.259 23.8319 112.399 23.0368C111.555 22.2254 110.898 21.2842 110.428 20.2132C109.957 19.1422 109.722 17.9657 109.722 16.6838C109.722 15.4018 109.957 14.2253 110.428 13.1543C110.898 12.0833 111.555 11.1503 112.399 10.3551C113.259 9.54375 114.265 8.91899 115.417 8.48086C116.57 8.04272 117.827 7.82365 119.19 7.82365C120.57 7.82365 121.827 8.04272 122.963 8.48086C124.115 8.91899 125.113 9.54375 125.957 10.3551C126.801 11.1503 127.458 12.0833 127.929 13.1543C128.416 14.2253 128.659 15.4018 128.659 16.6838C128.659 17.9657 128.416 19.1503 127.929 20.2376C127.458 21.3086 126.801 22.2416 125.957 23.0368C125.113 23.8319 124.115 24.4486 122.963 24.8867C121.827 25.3248 120.57 25.5439 119.19 25.5439ZM119.19 21.552C119.839 21.552 120.44 21.4384 120.992 21.2112C121.56 20.984 122.046 20.6595 122.452 20.2376C122.874 19.7994 123.198 19.2801 123.426 18.6797C123.669 18.0793 123.791 17.414 123.791 16.6838C123.791 15.9373 123.669 15.272 123.426 14.6878C123.198 14.0874 122.874 13.5762 122.452 13.1543C122.046 12.7162 121.56 12.3835 120.992 12.1563C120.44 11.9292 119.839 11.8156 119.19 11.8156C118.541 11.8156 117.933 11.9292 117.365 12.1563C116.813 12.3835 116.326 12.7162 115.904 13.1543C115.499 13.5762 115.174 14.0874 114.931 14.6878C114.703 15.272 114.59 15.9373 114.59 16.6838C114.59 17.414 114.703 18.0793 114.931 18.6797C115.174 19.2801 115.499 19.7994 115.904 20.2376C116.326 20.6595 116.813 20.984 117.365 21.2112C117.933 21.4384 118.541 21.552 119.19 21.552ZM131.183 25.2031V8.16442H138.972C140.53 8.16442 141.869 8.41595 142.989 8.91899C144.125 9.42204 145.001 10.1523 145.617 11.1097C146.234 12.0509 146.542 13.1706 146.542 14.4687C146.542 15.7507 146.234 16.8623 145.617 17.8035C145.001 18.7284 144.125 19.4424 142.989 19.9455C141.869 20.4323 140.53 20.6757 138.972 20.6757H133.861L136.003 18.6554V25.2031H131.183ZM141.723 25.2031L137.488 18.9962H142.623L146.883 25.2031H141.723ZM136.003 19.1666L133.861 16.9515H138.68C139.686 16.9515 140.433 16.7325 140.92 16.2943C141.423 15.8562 141.674 15.2477 141.674 14.4687C141.674 13.6736 141.423 13.057 140.92 12.6188C140.433 12.1807 139.686 11.9616 138.68 11.9616H133.861L136.003 9.74659V19.1666ZM152.59 25.2031V11.986H147.357V8.16442H162.619V11.986H157.41V25.2031H152.59ZM170.355 25.5439C168.959 25.5439 167.612 25.3735 166.314 25.0327C165.032 24.6757 163.985 24.2214 163.174 23.6696L164.756 20.1159C165.519 20.6027 166.395 21.0084 167.385 21.3329C168.391 21.6412 169.389 21.7954 170.379 21.7954C171.044 21.7954 171.58 21.7386 171.986 21.625C172.391 21.4952 172.683 21.3329 172.862 21.1382C173.057 20.9272 173.154 20.6838 173.154 20.4079C173.154 20.0185 172.975 19.7102 172.618 19.483C172.261 19.2558 171.799 19.0692 171.231 18.9231C170.663 18.7771 170.03 18.6311 169.332 18.485C168.651 18.339 167.961 18.1523 167.263 17.9252C166.582 17.698 165.957 17.4059 165.389 17.0489C164.821 16.6757 164.359 16.197 164.002 15.6128C163.645 15.0124 163.466 14.2578 163.466 13.3491C163.466 12.3267 163.742 11.4018 164.294 10.5742C164.862 9.74659 165.706 9.08127 166.825 8.57822C167.945 8.07517 169.341 7.82365 171.012 7.82365C172.132 7.82365 173.227 7.95347 174.298 8.21311C175.385 8.45652 176.351 8.82163 177.195 9.30845L175.71 12.8866C174.898 12.4484 174.095 12.1239 173.3 11.9129C172.505 11.6858 171.734 11.5722 170.988 11.5722C170.322 11.5722 169.787 11.6452 169.381 11.7912C168.975 11.9211 168.683 12.0996 168.505 12.3267C168.326 12.5539 168.237 12.8136 168.237 13.1056C168.237 13.4789 168.407 13.7791 168.748 14.0063C169.105 14.2172 169.568 14.3957 170.136 14.5418C170.72 14.6716 171.353 14.8095 172.034 14.9556C172.732 15.1016 173.422 15.2882 174.103 15.5154C174.801 15.7264 175.434 16.0185 176.002 16.3917C176.57 16.7487 177.024 17.2274 177.365 17.8278C177.722 18.412 177.9 19.1503 177.9 20.0428C177.9 21.0327 177.616 21.9495 177.049 22.7934C176.497 23.621 175.661 24.2863 174.541 24.7893C173.438 25.2924 172.042 25.5439 170.355 25.5439Z" fill="white"/>
<path d="M41.3665 22.4769V10.8906H45.115V22.4769H41.3665ZM37.2286 18.4607V14.9069H49.2287V18.4607H37.2286Z" fill="white"/>
</svg>
