<svg width="48" height="50" viewBox="0 0 48 50" fill="none" xmlns="http://www.w3.org/2000/svg">
<path d="M37.5635 0C38.5974 0.367813 39.3647 1.01985 39.6595 2.15672C39.708 2.34063 39.7444 2.53707 39.7444 2.72934C39.7484 6.28208 39.7524 9.839 39.7484 13.3917C39.7484 13.9894 39.3849 14.4032 38.8639 14.4576C38.4197 14.5035 37.9431 14.1608 37.8502 13.701C37.8098 13.5004 37.8139 13.2831 37.8139 13.0741C37.8139 9.88916 37.8139 6.70841 37.8139 3.52348C37.8139 3.34794 37.822 3.16821 37.8018 2.99266C37.7291 2.33645 37.4464 2.05223 36.8042 1.98535C36.6507 1.96864 36.4932 1.977 36.3357 1.977C25.3425 1.977 14.3534 1.977 3.36016 1.977C3.23496 1.977 3.10976 1.97282 2.98456 1.98118C2.26164 2.03133 1.95067 2.36153 1.91028 3.11387C1.9022 3.27688 1.90624 3.43571 1.90624 3.59872C1.90624 17.7553 1.90624 31.9078 1.90624 46.0644C1.90624 46.2441 1.89817 46.4197 1.91432 46.5994C1.9749 47.3016 2.27376 47.6067 2.95629 47.6652C3.12592 47.6778 3.29958 47.6736 3.47324 47.6736C14.4018 47.6736 25.3304 47.6736 36.259 47.6736C36.368 47.6736 36.4771 47.6736 36.5861 47.6736C37.4625 47.6527 37.8058 47.31 37.8098 46.3988C37.8179 44.2839 37.8139 42.1648 37.8139 40.0498C37.8139 39.8701 37.8058 39.6946 37.822 39.519C37.8704 38.9882 38.2985 38.5828 38.7912 38.5869C39.288 38.5911 39.7201 39.0007 39.7403 39.5357C39.7645 40.1961 39.7524 40.8607 39.7524 41.5211C39.7524 43.2347 39.7565 44.9484 39.7524 46.6579C39.7444 48.4343 38.5489 49.6757 36.8284 49.6757C25.5243 49.6798 14.2201 49.6757 2.91591 49.6798C1.39333 49.6798 0.488677 48.8355 0 47.4144C0 32.355 0 17.2956 0 2.23614C0.347324 1.1118 1.0662 0.367813 2.15664 0.00417995C13.9535 2.55046e-07 25.7585 0 37.5635 0Z" fill="#FF8400"/>
<path d="M47.9992 16.5433C48.0153 17.0532 47.7246 17.7805 47.3368 18.4743C43.5244 25.3165 39.7078 32.1503 35.8953 38.9924C35.6894 39.3644 35.4269 39.6695 35.0917 39.9245C33.2662 41.308 31.4448 42.6956 29.6274 44.0917C29.2235 44.4051 28.8075 44.5849 28.335 44.3006C27.8705 44.0206 27.8019 43.5776 27.8625 43.0426C28.1331 40.6894 28.3835 38.332 28.6258 35.9747C28.6662 35.5943 28.7752 35.2558 28.9569 34.9298C32.414 28.7355 35.8711 22.537 39.3242 16.3427C39.728 15.6154 40.1238 14.8798 40.5479 14.1651C41.8887 11.8997 44.5381 11.3605 46.517 12.978C47.5226 13.7889 47.9871 14.9049 47.9992 16.5433ZM34.3647 37.3665C34.5949 37.3498 34.6353 37.1492 34.7161 37.0071C37.7047 31.6529 40.6892 26.2987 43.6859 20.9487C43.8555 20.6436 43.7949 20.514 43.5163 20.3552C42.6157 19.8369 41.7191 19.3186 40.8427 18.7544C40.4711 18.5161 40.3177 18.6248 40.1279 18.9717C39.3565 20.3928 38.5609 21.8014 37.7733 23.2099C35.5965 27.1096 33.4277 31.0134 31.2388 34.9047C31.0207 35.2892 31.1015 35.4481 31.4488 35.6445C32.3373 36.1461 33.2096 36.6852 34.0901 37.2077C34.1789 37.2704 34.2758 37.3206 34.3647 37.3665ZM43.9 14.0856C43.3143 14.1191 42.7328 14.4242 42.341 15.0511C42.0624 15.4984 41.82 15.9707 41.5535 16.4221C41.4323 16.6269 41.4445 16.7648 41.6625 16.8944C42.6359 17.4712 43.6051 18.0522 44.5784 18.6373C44.7481 18.7376 44.8975 18.7711 45.0106 18.5579C45.3014 18.0062 45.6527 17.4795 45.8789 16.9028C46.3999 15.5443 45.4266 14.0898 43.9 14.0856ZM30.0716 41.0865C30.1887 41.0614 30.2412 41.0656 30.2735 41.0405C31.1217 40.4052 31.9617 39.7615 32.8098 39.1304C33.0158 38.9757 32.9431 38.8921 32.7654 38.7876C32.099 38.3989 31.4367 38.006 30.7784 37.6006C30.5199 37.4418 30.4432 37.5713 30.4149 37.8054C30.3786 38.0938 30.3503 38.3822 30.318 38.6706C30.2372 39.4606 30.1564 40.2547 30.0716 41.0865Z" fill="#FF8400"/>
<path d="M19.8415 23.1054C15.0436 23.1012 11.2069 19.1055 11.2109 14.1191C11.215 9.16196 15.088 5.18708 19.9062 5.19961C24.6758 5.21215 28.5166 9.20794 28.5125 14.1609C28.5085 19.1389 24.6556 23.1096 19.8415 23.1054ZM16.4571 13.5674C16.4571 13.3417 16.4491 13.1786 16.4571 13.0198C16.5339 11.5402 17.2326 10.466 18.5371 9.89341C19.8213 9.32497 21.0249 9.57575 22.1193 10.4911C23.4844 11.6322 23.5652 14.186 22.8301 15.49C22.6524 15.8035 22.6646 15.9372 22.9957 16.1044C23.7752 16.5015 24.4416 17.0616 24.9625 17.7847C25.2089 18.1274 25.3543 18.0982 25.5603 17.7471C26.4124 16.2925 26.7396 14.7084 26.4488 13.0533C25.9399 10.1693 24.3002 8.21735 21.5499 7.48173C18.7673 6.73774 16.3845 7.59876 14.5873 9.92685C12.8466 12.1797 12.7133 15.5109 14.1793 17.7763C14.357 18.0522 14.4863 18.1567 14.7205 17.8348C15.2738 17.0741 15.9725 16.489 16.7964 16.0626C17.0226 15.9456 17.0953 15.8369 16.9418 15.5862C16.5622 14.9508 16.4006 14.2528 16.4571 13.5674ZM19.8698 21.0866C21.1743 21.0281 22.4182 20.6937 23.545 19.9205C23.8115 19.7366 23.8115 19.5987 23.65 19.3479C21.9538 16.6938 17.8788 16.6603 16.126 19.2852C15.9119 19.6028 15.9604 19.77 16.2673 19.9748C17.3537 20.7063 18.5613 21.0239 19.8698 21.0866ZM21.3237 13.4253C21.3197 12.3929 20.7906 11.7074 19.9627 11.6614C19.1307 11.6154 18.5613 12.1337 18.4159 13.07C18.2584 14.0982 18.6905 14.9843 19.4579 15.1933C20.5079 15.4817 21.3278 14.7001 21.3237 13.4253Z" fill="#FF8400"/>
<path d="M18.2574 28.1502C16.0886 28.1502 13.9158 28.1544 11.7471 28.146C11.0686 28.146 10.6567 27.7656 10.6486 27.1638C10.6405 26.6455 10.9797 26.2275 11.4805 26.1565C11.634 26.1356 11.7915 26.1397 11.949 26.1397C16.1654 26.1397 20.3777 26.1397 24.594 26.1397C24.7354 26.1397 24.8767 26.1356 25.0141 26.1523C25.5189 26.2108 25.8703 26.6121 25.8783 27.1262C25.8864 27.6612 25.527 28.0958 25.0019 28.1335C24.6304 28.1627 24.2548 28.146 23.8792 28.146C22.0053 28.1502 20.1313 28.1502 18.2574 28.1502Z" fill="#FF8400"/>
<path d="M18.2616 31.5733C20.4304 31.5733 22.6032 31.5775 24.7719 31.5692C25.2565 31.5692 25.6321 31.7363 25.8179 32.217C26.0481 32.8105 25.6725 33.4709 25.0546 33.5587C24.9011 33.5796 24.7436 33.5754 24.5861 33.5754C20.3698 33.5754 16.1575 33.5754 11.9411 33.5754C11.7836 33.5754 11.6261 33.5796 11.4726 33.5587C10.9759 33.4876 10.6366 33.0655 10.6488 32.5472C10.6568 32.0498 10.992 31.6402 11.4726 31.5859C11.8119 31.5483 12.1592 31.565 12.5025 31.565C14.4209 31.5692 16.3432 31.5692 18.2616 31.5733Z" fill="#FF8400"/>
<path d="M18.2616 37.0028C20.4304 37.0028 22.6032 37.007 24.7719 36.9986C25.2565 36.9986 25.6321 37.1658 25.8179 37.6465C26.0481 38.24 25.6725 38.9004 25.0546 38.9881C24.9011 39.009 24.7436 39.0049 24.5861 39.0049C20.3698 39.0049 16.1575 39.0049 11.9411 39.0049C11.7836 39.0049 11.6261 39.009 11.4726 38.9881C10.9759 38.9171 10.6366 38.4949 10.6488 37.9767C10.6568 37.4793 10.992 37.0697 11.4726 37.0153C11.8119 36.9777 12.1592 36.9944 12.5025 36.9944C14.4209 36.9986 16.3432 36.9986 18.2616 37.0028Z" fill="#FF8400"/>
<path d="M22.3558 44.4343C21.5602 44.4343 20.7646 44.4426 19.9689 44.4301C19.2985 44.4217 18.8906 44.033 18.8906 43.427C18.8906 42.8209 19.3026 42.4322 19.977 42.428C21.5844 42.4197 23.1918 42.4197 24.7992 42.428C25.4696 42.4322 25.8775 42.8251 25.8775 43.4311C25.8775 44.0372 25.4655 44.4217 24.7951 44.4301C23.9793 44.4426 23.1676 44.4343 22.3558 44.4343Z" fill="#FF8400"/>
<path d="M7.60654 26.1482C8.1558 26.1482 8.58794 26.6038 8.57582 27.168C8.5637 27.7114 8.13965 28.1377 7.61058 28.1419C7.07344 28.1461 6.61707 27.6696 6.63323 27.1221C6.64534 26.5912 7.0896 26.1482 7.60654 26.1482Z" fill="#FF8400"/>
<path d="M8.5754 32.5806C8.57137 33.1449 8.12711 33.5838 7.5819 33.5712C7.06495 33.5587 6.63281 33.0989 6.63281 32.5681C6.63685 32.0373 7.07303 31.5859 7.58997 31.5775C8.13923 31.5691 8.5754 32.0164 8.5754 32.5806Z" fill="#FF8400"/>
<path d="M7.58594 37.007C8.13519 36.9986 8.5754 37.4416 8.5754 38.0059C8.5754 38.5493 8.15942 38.9881 7.63036 39.0007C7.09322 39.0132 6.63281 38.5534 6.63281 38.0017C6.63281 37.4709 7.06899 37.0153 7.58594 37.007Z" fill="#FF8400"/>
</svg>
