<svg width="48" height="50" viewBox="0 0 48 50" fill="none" xmlns="http://www.w3.org/2000/svg">
<path d="M48 13.9599C47.7149 14.8596 47.2694 15.645 46.4461 16.1207C45.2771 16.7991 44.0974 16.777 42.9926 16.0027C41.8165 15.1767 41.3995 13.9747 41.6383 12.5404C41.6882 12.238 41.6704 12.0721 41.3781 11.932C40.0096 11.2646 38.6446 10.5861 37.2902 9.88922C36.9338 9.70854 36.8305 9.80441 36.7877 10.1805C36.5525 12.2601 35.7114 14.0448 34.2858 15.5233C34.0221 15.7962 34.0399 15.9621 34.2502 16.246C35.4334 17.8537 36.6024 19.4687 37.7643 21.0911C37.9567 21.3603 38.1527 21.4967 38.4949 21.493C42.7146 21.4451 46.4639 24.7968 47.1553 29.2252C47.8931 33.9596 44.6748 38.7641 40.0951 39.579C36.2638 40.2611 33.2451 38.8526 31.0141 35.5967C30.8074 35.2944 30.6755 35.2096 30.3654 35.4603C29.5671 36.1093 28.7509 36.7361 27.9312 37.3519C27.6889 37.5326 27.6283 37.7206 27.7103 38.0082C27.9312 38.801 28.0738 39.6122 28.0667 40.4418C28.0667 40.6999 28.1558 40.8585 28.3839 40.9728C30.1445 41.843 31.9015 42.7205 33.655 43.6055C33.9223 43.7419 34.0934 43.6018 34.2965 43.4838C35.7969 42.5952 37.4649 42.8975 38.5519 44.2507C39.393 45.2979 39.4678 46.9682 38.7301 48.1518C37.9781 49.3576 36.4777 49.9512 35.1697 49.5604C33.7833 49.1474 32.8246 47.9122 32.7961 46.4889C32.7925 46.2308 32.7497 45.9506 32.8353 45.722C33.0028 45.261 32.7889 45.1062 32.4325 44.9329C31.0319 44.2581 29.6384 43.5649 28.2556 42.8533C27.892 42.6689 27.7922 42.7648 27.6889 43.1335C26.6339 46.9461 23.1484 49.6046 19.3242 49.6784C15.0082 49.7595 11.1093 46.3672 10.4998 41.9204C10.4499 41.548 10.2967 41.4042 9.92245 41.4116C8.89246 41.4337 7.86247 41.4337 6.83248 41.4116C6.49746 41.4042 6.34421 41.5295 6.20878 41.843C5.64924 43.1519 4.38402 43.9705 3.13307 43.8857C1.69678 43.7861 0.581259 42.9123 0.157146 41.5517C-0.352503 39.9145 0.413751 38.1705 1.96408 37.4514C3.43957 36.7656 5.28927 37.374 6.03415 38.8968C6.33352 39.5052 6.66497 39.6896 7.2851 39.649C8.17253 39.5937 9.06353 39.6195 9.95452 39.6417C10.3145 39.649 10.4464 39.4942 10.5034 39.1476C11.2768 34.4316 15.051 31.1942 19.6592 31.408C22.6245 31.5445 24.9553 32.9935 26.6161 35.5378C26.8692 35.9249 27.0153 35.8991 27.3218 35.6484C28.0702 35.04 28.8294 34.4426 29.6063 33.8785C29.9484 33.6314 29.9983 33.3844 29.895 32.9862C29.1572 30.0437 29.6954 27.3557 31.4845 24.9516C32.5608 23.5062 33.9686 22.507 35.6401 21.9355C36.0571 21.7917 36.0714 21.6663 35.8183 21.3234C34.8311 19.9923 33.8546 18.6501 32.8959 17.2895C32.6785 16.9835 32.5252 16.9872 32.2187 17.1531C27.614 19.6309 22.2788 17.7984 20.0085 12.9681C19.7483 12.415 19.563 11.8324 19.4276 11.2314C19.3634 10.9401 19.2743 10.9253 19.0641 11.1097C18.0341 12.0278 17.0041 12.9386 15.967 13.8456C15.7781 14.0116 15.7317 14.1517 15.8957 14.3692C16.9292 15.7851 17.4923 17.3891 17.6598 19.1479C17.6848 19.4097 17.8274 19.5461 18.002 19.6863C19.2244 20.6671 20.4504 21.6405 21.6551 22.6397C21.9402 22.8757 22.1398 22.9052 22.4712 22.7172C24.3494 21.6552 26.6197 22.6729 27.1472 24.8189C27.4679 26.1168 27.1329 27.2709 26.1564 28.1522C25.1371 29.074 23.9467 29.2768 22.7064 28.6942C21.5161 28.1337 20.8567 27.1456 20.8033 25.7702C20.7926 25.4974 20.7712 25.1987 20.8639 24.9553C21.0563 24.4576 20.8603 24.1994 20.4896 23.9192C19.6093 23.2481 18.7504 22.5476 17.9058 21.8322C17.5993 21.5741 17.4995 21.6184 17.4068 22.0055C16.7154 24.8668 15.0439 26.9059 12.4921 28.1817C9.45557 29.6971 5.53519 29.0851 3.03684 26.751C0.841429 24.6972 -0.149356 22.1493 0.0181506 19.1C0.239117 15.1067 3.51441 11.4047 7.34569 10.8516C7.83396 10.7815 8.00503 10.6082 7.98721 10.092C7.95157 9.05958 7.97295 8.02347 7.98008 6.99103C7.98364 6.72555 7.93018 6.54856 7.65932 6.42688C6.3157 5.83692 5.6029 4.76025 5.59934 3.25953C5.59578 1.78832 6.4547 0.663707 7.88742 0.106931C7.95869 0.0774332 8.02641 0.0368728 8.09769 0.00368748C8.56457 0.00368748 9.03502 0.00368748 9.5019 0.00368748C10.1648 0.217548 10.7814 0.523591 11.2482 1.07668C12.7202 2.83181 12.1784 5.38708 10.1149 6.38632C9.86899 6.50432 9.69435 6.60756 9.69792 6.93572C9.71217 8.06402 9.71217 9.19601 9.69792 10.3243C9.69435 10.6304 9.82622 10.7705 10.0971 10.8073C11.6332 11.0249 13.0053 11.6407 14.2242 12.6215C14.4416 12.7985 14.5984 12.7505 14.7944 12.5735C16.1737 11.3383 17.5636 10.1105 18.9536 8.88628C19.1211 8.73879 19.1959 8.58393 19.2173 8.35163C19.4989 5.32808 20.8888 2.99774 23.3444 1.34216C24.41 0.623147 25.5968 0.254421 26.8264 0C27.6069 0 28.3874 0 29.1679 0C29.2107 0.0184363 29.2535 0.0442479 29.2998 0.0516225C33.2772 0.844382 35.7435 3.27797 36.6844 7.35239C36.7378 7.58837 36.8554 7.71374 37.0479 7.8096C38.8014 8.68348 40.5584 9.56105 42.3083 10.446C42.5792 10.5824 42.7895 10.6009 43.0746 10.4165C44.3469 9.58317 45.8295 9.72698 46.97 10.7483C47.4975 11.2203 47.7719 11.8471 48 12.5035C48 12.9939 48 13.4769 48 13.9599ZM43.2813 35.947C45.3983 34.1735 46.1396 30.512 44.9813 27.7318C43.6769 24.605 40.6832 22.8647 37.358 23.2998C34.3856 23.6906 31.8267 26.3344 31.3527 29.3948C30.9107 32.2303 32.3007 35.0437 33.5231 35.8438C33.5374 35.6889 33.5481 35.5488 33.5623 35.405C33.7013 34.0739 34.7028 33.0636 35.9965 33.0378C37.6039 33.0046 39.2112 33.0083 40.8186 33.0378C41.984 33.0599 42.9534 33.919 43.1958 35.0732C43.2492 35.3423 43.2492 35.6189 43.2813 35.947ZM13.6789 25.2061C15.7175 23.5431 16.5087 19.9665 15.5143 17.2527C14.5699 14.6716 11.8969 12.1532 8.01928 12.5145C5.2073 12.7763 2.59134 15.1141 1.88924 18.1708C1.26198 20.8957 2.2991 23.8197 3.92071 25.0881C3.95635 24.9074 3.99199 24.7378 4.01693 24.5682C4.22721 23.226 5.16454 22.3189 6.46895 22.2894C8.04423 22.2563 9.62307 22.2526 11.1984 22.2894C12.2141 22.3116 12.9732 22.8389 13.4472 23.7791C13.6575 24.2031 13.6468 24.6788 13.6789 25.2061ZM32.8602 14.443C34.6066 12.9754 35.7328 9.8634 34.824 6.87673C33.908 3.85318 31.2172 1.79201 28.0488 1.72564C25.0515 1.66295 22.2645 3.70569 21.2595 6.71818C20.2794 9.66061 21.2844 12.7653 23.1127 14.4061C23.127 14.3324 23.1484 14.277 23.1519 14.2181C23.2945 12.4629 24.2675 11.5227 25.9568 11.5153C27.3467 11.5079 28.7367 11.5153 30.1231 11.5153C30.5971 11.5153 31.0568 11.5927 31.481 11.8213C32.4717 12.3634 32.8959 13.2372 32.8602 14.443ZM24.0857 45.8473C25.9568 44.2581 26.9618 40.9986 25.9497 38.0598C24.9945 35.2907 22.2823 32.9124 18.5865 33.1705C15.664 33.3733 12.9839 35.7516 12.2747 38.8563C11.6367 41.6365 12.7558 44.5642 14.3347 45.7994C14.3453 45.7109 14.3525 45.6298 14.3596 45.5523C14.5093 44.0184 15.2684 43.1151 16.7475 42.9934C18.4546 42.8533 20.176 42.8533 21.8867 43.0081C22.9238 43.104 23.7507 43.8857 23.993 44.9292C24.0536 45.2094 24.0501 45.5044 24.0857 45.8473ZM19.1959 44.7153C18.5081 44.7153 17.8238 44.7116 17.1359 44.7153C16.3697 44.7227 16.0881 45.014 16.081 45.792C16.0774 46.0833 16.1024 46.3746 16.0739 46.6622C16.0418 47.0272 16.1879 47.2153 16.5122 47.348C18.0947 47.9859 19.6949 48.0486 21.3236 47.5656C22.3892 47.2485 22.3892 47.2485 22.3857 46.1275C22.3857 46.0132 22.3892 45.9026 22.3857 45.7883C22.3607 45.0435 22.0685 44.7301 21.345 44.719C20.6286 44.708 19.9123 44.7153 19.1959 44.7153ZM8.82474 24.063C8.07631 24.063 7.32787 24.052 6.57943 24.0667C5.98781 24.0778 5.7027 24.3912 5.68488 25.0033C5.67775 25.3277 5.70626 25.6522 5.67775 25.973C5.64211 26.3676 5.81318 26.5556 6.15176 26.6883C7.80188 27.3447 9.46269 27.4 11.1413 26.8248C12.0002 26.5298 11.9967 26.5261 11.9967 25.5748C11.9967 25.3646 12.0074 25.1544 11.986 24.9443C11.929 24.3543 11.6474 24.0741 11.0736 24.063C10.3252 24.052 9.57318 24.0593 8.82474 24.063ZM28.0417 13.3073C27.2933 13.3073 26.5448 13.2962 25.7964 13.311C25.1691 13.322 24.8983 13.617 24.884 14.2734C24.8769 14.5978 24.9019 14.9223 24.8769 15.2431C24.8484 15.6081 24.9874 15.7962 25.3153 15.9289C26.8799 16.5668 28.4658 16.6369 30.0803 16.1612C31.1424 15.8478 31.1424 15.8478 31.1424 14.7269C31.1424 14.5831 31.1459 14.4356 31.1424 14.2918C31.1246 13.5949 30.8751 13.3294 30.2015 13.3184C29.478 13.2962 28.7581 13.3036 28.0417 13.3073ZM38.4093 34.8187C37.6466 34.8187 36.8804 34.8077 36.1177 34.8224C35.5653 34.8335 35.2944 35.1285 35.2802 35.6963C35.2695 36.0355 35.3015 36.3748 35.2695 36.7103C35.2267 37.1306 35.4263 37.3187 35.772 37.4551C37.39 38.0856 39.0188 38.1483 40.6653 37.5842C41.5243 37.2892 41.5278 37.2929 41.5278 36.3784C41.5278 36.1535 41.5314 35.9249 41.5243 35.7C41.5029 35.0879 41.2534 34.8261 40.6546 34.8151C39.9062 34.8077 39.1578 34.8151 38.4093 34.8187ZM36.0108 47.8827C36.8875 47.8827 37.5575 47.1969 37.5575 46.3045C37.5575 45.4749 36.8412 44.7338 36.0286 44.719C35.2089 44.7043 34.4569 45.4675 34.4569 46.3082C34.4604 47.2042 35.134 47.8864 36.0108 47.8827ZM8.84256 1.74776C7.98364 1.74038 7.30649 2.40409 7.2851 3.27428C7.26372 4.13341 7.97651 4.89667 8.81405 4.91142C9.64802 4.92617 10.3287 4.23666 10.343 3.35909C10.3573 2.41884 9.74068 1.75513 8.84256 1.74776ZM1.72173 40.5266C1.71817 41.4116 2.36681 42.1121 3.20791 42.1306C4.03832 42.1453 4.7725 41.4042 4.77963 40.5414C4.78675 39.6749 4.11673 38.978 3.2685 38.9669C2.35968 38.9522 1.7253 39.5937 1.72173 40.5266ZM24.0109 27.2193C24.8698 27.223 25.579 26.4929 25.5648 25.6264C25.5505 24.771 24.8555 24.0667 24.0215 24.063C23.1733 24.0593 22.4498 24.8042 22.4677 25.6633C22.4855 26.5261 23.1698 27.2156 24.0109 27.2193ZM44.8102 14.8117C45.6585 14.8043 46.3249 14.1185 46.3356 13.2483C46.3428 12.3634 45.6513 11.6517 44.7889 11.6591C43.9442 11.6665 43.2635 12.3634 43.2563 13.2262C43.2492 14.1074 43.9478 14.8228 44.8102 14.8117Z" fill="#FF8400"/>
<path d="M38.3998 24.7859C40.1996 24.7822 41.6573 26.2829 41.6537 28.1302C41.6501 29.9739 40.1711 31.493 38.3927 31.4783C36.6142 31.4635 35.1316 29.9149 35.1566 28.0971C35.1779 26.2719 36.632 24.7859 38.3998 24.7859ZM39.9287 28.1265C39.9323 27.2379 39.2908 26.5558 38.4319 26.5373C37.5765 26.5189 36.878 27.2342 36.878 28.1229C36.8815 28.9894 37.5551 29.7047 38.382 29.7194C39.2373 29.7379 39.9252 29.0299 39.9287 28.1265Z" fill="#FF8400"/>
<path d="M8.84699 14.0298C10.6468 14.0372 12.0653 15.5268 12.0581 17.4036C12.051 19.2288 10.5969 20.7332 8.83629 20.7332C7.06499 20.7332 5.58594 19.1993 5.58594 17.3668C5.58238 15.5268 7.0543 14.0224 8.84699 14.0298ZM8.83986 15.8071C7.96668 15.7997 7.27883 16.4966 7.28596 17.3742C7.29309 18.2443 8.00232 18.9707 8.83986 18.967C9.6667 18.9634 10.3545 18.2554 10.3652 17.3963C10.3724 16.4855 9.72729 15.8108 8.83986 15.8071Z" fill="#FF8400"/>
<path d="M31.2593 6.64792C31.2522 8.45836 29.7696 9.99226 28.0303 9.98857C26.259 9.98488 24.7515 8.43255 24.7657 6.62211C24.78 4.77479 26.2483 3.26671 28.0303 3.27039C29.8123 3.27777 31.2664 4.79323 31.2593 6.64792ZM28.0161 5.05134C27.1429 5.05134 26.4764 5.74085 26.4836 6.63317C26.4907 7.49967 27.1643 8.20025 27.9911 8.21131C28.8572 8.22237 29.5272 7.54023 29.5343 6.63685C29.5415 5.72242 28.8999 5.05134 28.0161 5.05134Z" fill="#FF8400"/>
<path d="M22.4518 38.0858C22.4411 39.922 20.9478 41.4375 19.1729 41.4117C17.4301 41.3859 15.9511 39.8335 15.9689 38.0379C15.9832 36.2053 17.48 34.6714 19.2442 34.6861C21.0191 34.6972 22.4625 36.2274 22.4518 38.0858ZM20.7339 38.06C20.7375 37.1382 20.0924 36.4671 19.205 36.4708C18.3675 36.4745 17.6832 37.175 17.6761 38.0379C17.6689 38.908 18.339 39.616 19.1801 39.6271C20.0746 39.6381 20.7304 38.9781 20.7339 38.06Z" fill="#FF8400"/>
</svg>
