<svg width="48" height="50" viewBox="0 0 48 50" fill="none" xmlns="http://www.w3.org/2000/svg">
<path d="M48.0026 42.8353C47.5101 44.0704 46.6179 44.6165 45.3423 44.5283C44.9547 44.5031 44.5632 44.5367 44.1716 44.5157C43.0816 44.4653 42.1854 43.5915 42.0724 42.4699C42.0361 42.117 42.0159 41.7599 42.0159 41.4028C42.0118 32.0514 42.0159 22.6959 42.0078 13.3445C42.0078 12.7186 42.1047 12.1262 42.3227 11.5381C42.9605 9.8115 43.5782 8.0765 44.2039 6.3415C44.2362 6.24907 44.2685 6.16085 44.3048 6.06843C44.442 5.70295 44.6762 5.46349 45.0718 5.47189C45.4513 5.4803 45.6652 5.72815 45.7863 6.07263C46.2263 7.28671 46.6623 8.505 47.1064 9.71908C47.4011 10.5215 47.7038 11.3238 48.0026 12.122C48.0026 22.364 48.0026 32.6018 48.0026 42.8353ZM43.5378 26.1113C43.5378 30.203 43.5378 34.2948 43.5378 38.3907C43.5378 39.0293 43.5378 39.0335 44.1675 39.0335C44.761 39.0335 45.3544 39.0335 45.9478 39.0335C46.5614 39.0335 46.5654 39.0293 46.5654 38.3781C46.5654 34.446 46.5654 30.5181 46.5654 26.586C46.5654 22.3808 46.5654 18.1756 46.5654 13.9663C46.5654 13.3025 46.5654 13.3025 45.9115 13.3025C45.318 13.3025 44.7246 13.3319 44.1312 13.2941C43.6508 13.2605 43.5257 13.4453 43.5257 13.9327C43.5459 17.9908 43.5378 22.0531 43.5378 26.1113ZM45.0637 40.6256C43.4207 40.6256 43.4207 40.6256 43.5418 42.0708C43.5459 42.1044 43.5459 42.1338 43.5499 42.1674C43.6266 42.6841 43.8527 42.9068 44.3573 42.932C44.7933 42.9488 45.2292 42.9488 45.6652 42.9362C46.2667 42.9194 46.513 42.6715 46.5533 42.0498C46.5735 41.7095 46.5493 41.3692 46.5614 41.0289C46.5735 40.739 46.4645 40.613 46.1819 40.6214C45.8105 40.634 45.4392 40.6256 45.0637 40.6256ZM45.0476 8.48819C44.6762 9.52163 44.3411 10.4542 43.998 11.3911C43.9092 11.6347 44.002 11.7145 44.2321 11.7103C44.7771 11.7061 45.318 11.7061 45.863 11.7103C46.0891 11.7145 46.186 11.6431 46.0972 11.3953C45.754 10.4584 45.419 9.52163 45.0476 8.48819Z" fill="#FF8400"/>
<path d="M29.9996 21.8177C29.9996 15.2852 29.9996 8.75692 29.9996 2.22441C29.9996 1.53545 29.9996 1.53546 29.3255 1.53546C20.2546 1.53546 11.1837 1.53546 2.11288 1.53546C1.47505 1.53546 1.47505 1.53545 1.47505 2.20341C1.47505 3.50151 1.47102 4.80381 1.47505 6.10191C1.47505 6.53881 1.3378 6.87489 0.897782 6.97991C0.445652 7.08914 0.0217791 6.78667 0.0177423 6.29095C-0.0024421 4.43832 0.00159477 2.5857 0.0177423 0.733069C0.0217791 0.30457 0.29225 0.0567127 0.704011 0.010502C0.857412 -0.00630184 1.01485 0.00210087 1.17229 0.00210087C10.8971 0.00210087 20.626 0.00210087 30.3508 0.00210087C31.352 0.00210087 31.5377 0.199547 31.5377 1.26239C31.5377 1.40943 31.5377 1.55646 31.5377 1.69929C31.5377 2.52268 31.5377 2.52268 32.3047 2.43026C32.4137 2.41766 32.5186 2.38825 32.6276 2.37145C33.4713 2.24122 33.7862 2.46387 33.9194 3.32927C34.0203 3.98462 34.093 4.64837 34.1576 5.30793C34.1859 5.60199 34.2948 5.73222 34.5895 5.76163C35.3202 5.83725 36.0428 5.94227 36.7695 6.03889C37.4517 6.13132 37.6858 6.38338 37.6212 7.10594C37.5122 8.34943 37.3548 9.58872 37.2095 10.828C36.9148 13.4032 36.612 15.9826 36.3133 18.5578C36.2527 19.0745 36.2003 19.5912 36.1276 20.1037C35.9742 21.1834 36.2447 22.2336 36.3658 23.2881C36.7049 26.2036 37.0803 29.1148 37.4396 32.0261C37.7666 34.6475 38.0935 37.2689 38.4205 39.8945C38.6183 41.4867 38.8242 43.0789 39.014 44.671C39.0947 45.339 38.8242 45.6835 38.1783 45.7675C36.6645 45.9691 35.1466 46.175 33.6328 46.364C33.2251 46.4144 33.0273 46.5741 33.0152 47.0362C32.999 47.5865 32.9062 48.1326 32.8295 48.6787C32.7487 49.2627 32.4742 49.5315 31.9091 49.4769C30.6818 49.3635 29.4587 49.2039 28.2395 49.0484C26.0273 48.7754 23.8111 48.5191 21.6029 48.204C20.1133 47.9898 18.6883 48.3931 17.2391 48.5611C14.6837 48.8594 12.1364 49.2333 9.58514 49.5778C9.2743 49.6198 8.96749 49.666 8.65666 49.6786C8.06727 49.6996 7.80084 49.4601 7.71203 48.8426C7.63129 48.2797 7.5667 47.7167 7.50615 47.1538C7.43752 46.469 7.39715 46.4312 6.75529 46.3598C5.34642 46.196 3.93755 46.0279 2.52868 45.8347C1.6002 45.7087 1.39432 45.3894 1.53964 44.4148C1.55579 44.3181 1.57598 44.2215 1.58809 44.1249C1.62442 43.8644 1.53561 43.7174 1.2611 43.73C1.09155 43.7384 0.917965 43.7384 0.74438 43.7216C0.29225 43.6838 0.0379271 43.4107 0.00563214 42.9402C-0.00244161 42.7932 0.00159502 42.6462 0.00159502 42.5033C0.00159502 31.732 0.00159502 20.9607 0.00159502 10.1895C0.00159502 10.0088 -0.00647922 9.83237 0.0137052 9.65593C0.0621477 9.25684 0.381061 8.97117 0.74438 8.97537C1.11174 8.97958 1.41854 9.27364 1.45891 9.67694C1.47909 9.88699 1.47102 10.097 1.47102 10.3113C1.47102 20.6751 1.47102 31.0431 1.47102 41.4069C1.47102 42.1462 1.47102 42.1462 2.19765 42.1462C11.2201 42.1462 20.2465 42.1462 29.2689 42.1462C29.9956 42.1462 29.9996 42.1462 29.9996 41.4027C30.0036 34.8828 29.9996 28.3503 29.9996 21.8177ZM31.5377 25.1113C31.5377 30.896 31.5377 36.6808 31.5377 42.4613C31.5377 43.5452 31.3439 43.7468 30.3145 43.7468C21.5101 43.7468 12.7056 43.7468 3.90122 43.7468C3.74378 43.7468 3.59038 43.751 3.43294 43.7468C3.20284 43.7384 3.14632 43.8938 3.12614 44.0871C3.09788 44.3223 3.23917 44.3517 3.41275 44.3643C3.6146 44.3854 3.8124 44.4232 4.01425 44.4484C8.31756 44.9819 12.6209 45.507 16.9242 46.0447C21.5989 46.6245 26.2736 47.2084 30.9442 47.8133C31.36 47.868 31.4327 47.6915 31.469 47.368C31.7234 45.1457 31.9817 42.9234 32.236 40.7011C32.559 37.8655 32.8819 35.0298 33.2089 32.1941C33.5036 29.6484 33.8104 27.1068 34.1051 24.561C34.4038 21.969 34.6945 19.3728 34.9892 16.7808C35.3242 13.8485 35.6593 10.9162 36.0105 7.98815C36.0549 7.61006 35.9379 7.50503 35.6068 7.46723C34.4765 7.3454 33.3462 7.19836 32.2159 7.05973C31.5377 6.97571 31.5377 6.97151 31.5377 7.70668C31.5377 13.5082 31.5377 19.3098 31.5377 25.1113ZM35.3525 27.363C35.3323 27.3714 35.3162 27.3798 35.296 27.384C35.1063 29.0434 34.9125 30.6986 34.7228 32.358C34.4523 34.6769 34.1818 36.9916 33.9154 39.3106C33.7216 40.9826 33.5319 42.6588 33.33 44.3307C33.2816 44.7214 33.3825 44.8391 33.7822 44.7802C34.8439 44.6164 35.9136 44.4904 36.9834 44.3643C37.3709 44.3181 37.4275 44.0913 37.3871 43.7552C37.1812 42.1462 36.9794 40.5415 36.7816 38.9325C36.4546 36.2649 36.1276 33.5931 35.8006 30.9254C35.6472 29.7366 35.4978 28.5519 35.3525 27.363ZM14.3688 47.368C14.1952 47.3176 14.1226 47.284 14.0499 47.2756C12.6411 47.1034 11.2362 46.9185 9.82331 46.7631C8.90694 46.6623 8.91905 46.6791 9.08456 47.6369C9.14108 47.9604 9.25815 48.0486 9.5811 48.0024C11.1393 47.7797 12.7016 47.5865 14.3688 47.368ZM31.5377 4.7576C31.5861 4.94664 31.4206 5.24491 31.7153 5.37094C31.9736 5.48017 32.2804 5.57259 32.5186 5.40035C32.7164 5.25751 32.5913 4.98025 32.5671 4.7618C32.555 4.64837 32.5227 4.53915 32.5227 4.42572C32.5227 4.13165 32.3894 4.03503 32.1149 4.04764C31.6023 4.06864 31.5377 4.13165 31.5377 4.7576Z" fill="#FF8400"/>
<path d="M15.7438 32.8162C14.9889 32.8498 14.2461 32.8162 13.5639 32.4129C12.591 31.8332 12.0703 30.9552 12.0097 29.7999C11.9693 29.0227 12.0016 28.2414 11.9976 27.46C11.9976 27.1113 12.1187 26.8382 12.4215 26.6534C12.8857 26.3719 12.8897 25.8258 12.4295 25.5023C11.2629 24.6789 10.4394 23.5783 10.0357 22.1751C9.34132 19.768 9.84593 17.6129 11.5616 15.8611C13.3055 14.0841 15.4289 13.5716 17.738 14.4244C20.0027 15.2604 21.3672 16.9869 21.6861 19.4739C22.005 21.9609 21.0846 23.948 19.163 25.4393C18.6342 25.8468 18.614 26.3131 19.1429 26.687C19.4053 26.8718 19.5062 27.1449 19.5102 27.439C19.5183 28.3128 19.5829 29.1908 19.4618 30.0646C19.2478 31.6273 18.1013 32.728 16.5794 32.812C16.3049 32.8288 16.0264 32.8162 15.7438 32.8162ZM15.7236 20.2931C16.4422 20.2973 17.1607 20.2805 17.8753 20.3015C18.4041 20.3141 18.7351 20.625 18.7472 21.0619C18.7594 21.524 18.4203 21.8559 17.8793 21.8853C17.5523 21.9021 17.2253 21.8979 16.8984 21.8937C16.64 21.8895 16.531 22.0155 16.535 22.276C16.5391 23.5741 16.5391 24.8722 16.535 26.1745C16.535 26.4517 16.6683 26.54 16.9145 26.54C17.1971 26.54 17.2778 26.3719 17.2415 26.1325C17.1042 25.1914 17.4797 24.6369 18.2749 24.1412C19.5062 23.3682 20.1642 22.1121 20.2328 20.6124C20.366 17.6087 18.0852 15.399 15.1867 15.672C13.2086 15.8569 11.3961 17.8397 11.2911 19.9024C11.1902 21.9357 11.9895 23.4564 13.681 24.4563C14.1008 24.7041 14.2865 25.036 14.2784 25.5191C14.2744 25.6998 14.2825 25.8762 14.2784 26.0568C14.2744 26.3173 14.2865 26.5442 14.6337 26.5484C14.9808 26.5526 14.997 26.3341 14.997 26.0694C14.9929 25.0444 15.001 24.0236 14.9929 22.9985C14.9808 21.7382 15.1585 21.9147 13.9635 21.8979C13.8707 21.8979 13.7778 21.9021 13.681 21.8937C13.0997 21.8601 12.7444 21.5492 12.7525 21.0787C12.7606 20.604 13.1158 20.3057 13.7011 20.2973C14.3793 20.2889 15.0495 20.2931 15.7236 20.2931ZM15.7761 28.1405C15.1706 28.1405 14.561 28.1489 13.9555 28.1363C13.6648 28.1321 13.5195 28.2372 13.5316 28.5564C13.5437 28.9765 13.5235 29.4008 13.5477 29.8209C13.5881 30.5729 14.1492 31.1736 14.8678 31.2072C15.4572 31.2366 16.0506 31.2366 16.644 31.2072C17.3868 31.1694 17.952 30.5687 17.9923 29.7915C18.0166 29.3882 17.9843 28.9807 18.0045 28.5774C18.0206 28.2288 17.8632 28.1279 17.5564 28.1363C16.9589 28.1489 16.3695 28.1363 15.7761 28.1405Z" fill="#FF8400"/>
<path d="M16.5348 11.7567C16.5227 12.0633 16.555 12.37 16.4702 12.6725C16.3612 13.0422 16.1311 13.2522 15.7597 13.2522C15.3641 13.2522 15.0896 13.0254 15.0371 12.6305C14.9564 12.0213 14.9564 11.4038 15.0371 10.7946C15.0896 10.3997 15.3681 10.1687 15.7557 10.1645C16.1271 10.1603 16.3572 10.3745 16.4621 10.7442C16.5631 11.0803 16.5267 11.4206 16.5348 11.7567Z" fill="#FF8400"/>
<path d="M24.0092 21.1289C23.7145 21.1079 23.4319 21.1163 23.1614 21.0659C22.7578 20.9902 22.5196 20.7088 22.5317 20.2887C22.5438 19.8728 22.7981 19.5745 23.2018 19.5409C23.7428 19.4989 24.2877 19.4989 24.8287 19.5409C25.2324 19.5703 25.4867 19.8644 25.5028 20.2803C25.519 20.7004 25.2808 20.986 24.8771 21.0617C24.5865 21.1163 24.2877 21.1121 24.0092 21.1289Z" fill="#FF8400"/>
<path d="M7.52142 19.5244C7.77171 19.5244 8.02603 19.495 8.26824 19.5286C8.65982 19.5832 8.93836 19.7932 8.9747 20.2385C9.00699 20.667 8.789 20.9821 8.34091 21.0577C7.78382 21.1543 7.21865 21.1501 6.6656 21.0619C6.26999 20.9989 6.02374 20.7342 6.01567 20.2931C6.01163 19.894 6.29825 19.5748 6.72616 19.5286C6.98855 19.5034 7.25499 19.5286 7.52142 19.5244Z" fill="#FF8400"/>
<path d="M19.4947 14.2983C18.9982 14.2983 18.6349 13.7774 18.8246 13.2859C19.0386 12.7313 19.3373 12.2146 19.6764 11.7315C19.9186 11.3912 20.2658 11.3156 20.6291 11.5299C20.9682 11.7315 21.0974 12.055 20.948 12.4415C20.73 13.0128 20.4071 13.5295 20.072 14.0336C19.9469 14.2311 19.7208 14.2899 19.4947 14.2983Z" fill="#FF8400"/>
<path d="M9.99019 24.2459C9.99019 24.5022 9.86101 24.7374 9.61879 24.8929C9.20703 25.1533 8.79123 25.418 8.36332 25.649C7.94753 25.8759 7.55191 25.7625 7.33796 25.4054C7.11189 25.0315 7.20878 24.582 7.6165 24.3131C8.04845 24.0233 8.49654 23.746 8.96078 23.5233C9.45328 23.2797 9.97808 23.6494 9.99019 24.2459Z" fill="#FF8400"/>
<path d="M9.98555 16.4073C9.98151 16.9493 9.45268 17.3316 8.96018 17.0963C8.45153 16.8527 7.96711 16.5502 7.5069 16.2183C7.17588 15.9788 7.11129 15.584 7.33332 15.2227C7.55131 14.8656 7.88637 14.7312 8.26584 14.9328C8.73815 15.1849 9.19835 15.4621 9.64645 15.7478C9.86847 15.8906 9.98151 16.1259 9.98555 16.4073Z" fill="#FF8400"/>
<path d="M24.3051 15.6005C24.289 15.9198 24.1316 16.1592 23.8813 16.3189C23.4816 16.5751 23.082 16.8272 22.6662 17.0499C22.2665 17.2683 21.8467 17.1549 21.6368 16.802C21.4268 16.4533 21.5076 15.9912 21.8871 15.7392C22.3311 15.4367 22.7913 15.1552 23.2717 14.9242C23.7602 14.6931 24.2971 15.067 24.3051 15.6005Z" fill="#FF8400"/>
<path d="M22.2853 23.4312C22.3862 23.4648 22.5315 23.4816 22.6486 23.553C23.0846 23.805 23.5246 24.0571 23.9404 24.3386C24.3198 24.599 24.4006 24.9813 24.2068 25.351C24.009 25.7249 23.5972 25.8761 23.2016 25.6619C22.7293 25.4098 22.2731 25.1283 21.8291 24.8259C21.5384 24.6284 21.4617 24.3008 21.5707 23.9605C21.6757 23.6412 21.9219 23.4816 22.2853 23.4312Z" fill="#FF8400"/>
<path d="M11.2412 11.4206C11.5561 11.4164 11.7781 11.5802 11.9315 11.8449C12.1737 12.2608 12.4119 12.6809 12.6299 13.1094C12.8479 13.5421 12.7187 14 12.3554 14.2059C12.0082 14.4033 11.5884 14.2899 11.3462 13.8866C11.0716 13.4329 10.8052 12.9708 10.5953 12.4877C10.3652 11.9751 10.7164 11.4374 11.2412 11.4206Z" fill="#FF8400"/>
</svg>
