<svg width="48" height="50" viewBox="0 0 48 50" fill="none" xmlns="http://www.w3.org/2000/svg">
<path d="M25.4788 0C27.8235 0.630721 30.1642 1.27349 32.5089 1.89618C36.7116 3.01702 40.9224 4.1258 45.1251 5.2386C46.691 5.65239 47.6808 6.60048 47.9648 8.21544C48.054 8.72163 47.9607 9.21576 47.8309 9.69784C44.476 22.1154 41.1131 34.533 37.7542 46.9465C37.1781 49.0677 35.3973 50.0921 33.2391 49.5257C29.5841 48.5655 25.9291 47.5933 22.2781 46.6171C21.8318 46.4966 21.3856 46.4404 20.9272 46.4404C14.7895 46.4444 8.65587 46.4444 2.51816 46.4444C2.27476 46.4444 2.02731 46.4444 1.78391 46.4162C0.623709 46.2837 0.00304248 45.6088 0.00304248 44.4437C-0.00101416 33.3077 -0.00101416 22.1717 0.00304248 11.0396C0.00304248 9.76613 0.721069 9.07917 2.02325 9.07917C7.65388 9.07917 13.2845 9.07113 18.9151 9.09122C19.4141 9.09122 19.6331 8.9466 19.7548 8.46854C20.2295 6.62056 20.769 4.79268 21.2274 2.94069C21.6047 1.41812 22.4728 0.413785 24.0103 0C24.4971 0 24.9879 0 25.4788 0ZM1.81636 27.7316C1.81636 33.1631 1.82042 38.5905 1.80825 44.0219C1.80825 44.4156 1.88127 44.6044 2.33967 44.6044C10.6801 44.5924 19.0165 44.5964 27.357 44.5964C27.6207 44.5964 27.8762 44.5763 28.1196 44.4558C28.858 44.0942 29.0811 43.4756 29.0811 42.7002C29.073 32.7613 29.077 22.8225 29.077 12.8836C29.077 11.4534 28.501 10.8789 27.069 10.8789C18.8786 10.8789 10.6842 10.8789 2.49382 10.8789C1.82042 10.8789 1.82042 10.8789 1.82042 11.5418C1.81636 16.9371 1.81636 22.3364 1.81636 27.7316ZM28.2251 46.3319C30.0952 46.83 31.872 47.3081 33.6489 47.7741C34.878 48.0955 35.6934 47.6255 36.0179 46.4162C37.1497 42.2382 38.2775 38.0562 39.4093 33.8782C41.6202 25.7069 43.831 17.5316 46.0338 9.36038C46.3786 8.07885 45.9527 7.33565 44.6667 6.99016C38.2288 5.27476 31.7869 3.56337 25.3449 1.86002C24.1969 1.55872 23.3774 2.02473 23.061 3.14959C22.562 4.94132 22.0834 6.73305 21.6006 8.5288C21.4546 9.07113 21.4627 9.07917 22.0185 9.07917C23.8277 9.08319 25.641 9.07917 27.4503 9.07917C28.4361 9.07917 29.3407 9.3885 29.9086 10.1679C30.3954 10.8347 31.0323 11.0396 31.7422 11.2084C32.0424 11.2807 32.3467 11.349 32.6388 11.4494C32.9592 11.5579 33.1864 11.4775 33.4298 11.2525C34.7725 9.99914 36.1599 8.79394 37.458 7.50036C37.9854 6.97409 38.4519 6.89776 39.0969 7.1388C39.6121 7.33163 39.6365 7.31958 39.3525 7.78559C38.4763 9.22379 37.6 10.662 36.7076 12.0922C36.5291 12.3774 36.5372 12.5019 36.8942 12.5823C37.4337 12.7028 37.9692 12.8474 38.5006 13.0041C38.7765 13.0844 39.0077 13.0483 39.247 12.9037C39.6933 12.6345 40.1435 12.3734 40.5979 12.1203C40.9833 11.9034 41.3849 12.06 41.6445 12.277C41.8838 12.4778 41.5187 12.7108 41.4092 12.9238C41.3078 13.1246 41.1861 13.3255 41.0319 13.4862C40.3139 14.2294 40.3058 15.1333 40.4194 16.0653C40.4356 16.2099 40.4762 16.3546 40.4681 16.4992C40.4559 16.7282 40.6222 17.0737 40.3585 17.154C40.0421 17.2504 39.6811 17.1259 39.4174 16.8808C39.3241 16.7965 39.2714 16.6679 39.2065 16.5554C38.9793 16.1617 38.7521 15.772 38.529 15.3743C38.4316 15.1976 38.3099 15.065 38.099 15.0128C37.5148 14.8641 36.9307 14.7115 36.3506 14.5427C36.0463 14.4544 35.9652 14.5829 35.9733 14.8481C35.9774 14.9605 35.9733 15.073 35.9774 15.1855C36.0098 16.7683 36.0463 18.3512 36.0707 19.934C36.0747 20.0947 36.1559 20.3116 35.9206 20.396C35.5595 20.5245 34.5535 20.0143 34.4399 19.6407C33.9166 17.9575 33.3487 16.2863 32.8943 14.5869C32.6793 13.7794 32.3061 13.3456 31.4623 13.2331C30.8863 13.1568 30.8944 13.0965 30.8944 13.683C30.8944 16.9973 30.8944 20.3076 30.8944 23.6219C30.8944 24.2848 30.9066 24.9476 30.8903 25.6105C30.8822 25.8997 30.9674 26.0564 31.2757 26.1127C31.6286 26.1769 31.9694 26.2894 32.3142 26.3858C32.5292 26.4421 32.659 26.5385 32.586 26.7996C32.3345 27.7035 32.0992 28.6074 31.8558 29.5153C31.795 29.7443 31.6489 29.8528 31.4218 29.7604C30.9471 29.5716 30.8903 29.7925 30.8903 30.2063C30.9025 34.3602 30.8984 38.5101 30.8984 42.6641C30.8944 44.5321 30.1033 45.6489 28.2251 46.3319Z" fill="#FF8400"/>
<path d="M15.4277 34.5528C9.77279 34.5769 5.11576 29.9048 5.16444 24.3247C5.21312 18.6924 9.81336 14.0966 15.4927 14.1448C21.1922 14.193 25.7965 18.6643 25.7641 24.389C25.7316 30.4029 20.7987 34.6051 15.4277 34.5528ZM15.4318 26.4378C16.0525 26.4378 16.6731 26.4137 17.2898 26.4459C17.7157 26.47 17.8861 26.2972 17.9023 25.9035C17.9469 24.8711 17.9469 23.8346 17.9023 22.8021C17.8901 22.4767 17.7522 22.308 17.3912 22.308C16.1012 22.3201 14.8152 22.3201 13.5252 22.308C13.1885 22.304 13.083 22.4366 13.0465 22.7579C12.9289 23.8707 12.941 24.9795 13.0587 26.0923C13.0871 26.3695 13.2209 26.4418 13.4724 26.4378C14.1256 26.4298 14.7787 26.4378 15.4318 26.4378ZM9.24137 26.4378C9.76467 26.4378 10.2839 26.4258 10.8072 26.4418C11.148 26.4539 11.2697 26.3454 11.2251 25.9879C11.0953 24.9112 11.1074 23.8266 11.2129 22.7499C11.2454 22.4205 11.152 22.308 10.8316 22.312C9.77279 22.3201 8.70995 22.3201 7.65116 22.312C7.35097 22.308 7.22927 22.4366 7.16437 22.7258C6.91286 23.8507 6.93314 24.9675 7.18871 26.0883C7.2455 26.3414 7.37126 26.4418 7.62277 26.4378C8.1623 26.4298 8.70183 26.4378 9.24137 26.4378ZM21.7034 26.4378C22.2267 26.4378 22.75 26.4258 23.2692 26.4418C23.5492 26.4499 23.6749 26.3414 23.7358 26.0722C23.9873 24.9514 23.9913 23.8346 23.756 22.7138C23.6992 22.4325 23.5613 22.304 23.2571 22.308C22.2307 22.3201 21.2004 22.3201 20.174 22.308C19.8373 22.304 19.6913 22.4285 19.7237 22.766C19.8292 23.8466 19.8049 24.9273 19.7197 26.008C19.6953 26.3213 19.817 26.4499 20.1375 26.4418C20.6568 26.4258 21.1801 26.4378 21.7034 26.4378ZM17.4682 28.4626C17.4682 28.2054 17.2776 28.2376 17.1234 28.2376C16.0322 28.2336 14.941 28.2416 13.8497 28.2336C13.5049 28.2336 13.4359 28.3702 13.5171 28.6875C13.8497 29.9932 14.3487 31.2305 15.0343 32.3915C15.3304 32.8897 15.5819 32.8897 15.8821 32.3955C16.4703 31.4233 16.9125 30.3869 17.233 29.2941C17.3141 29.0169 17.3912 28.7397 17.4682 28.4626ZM15.4399 20.464C15.9916 20.464 16.5474 20.456 17.0991 20.4681C17.4074 20.4721 17.5007 20.3716 17.4196 20.0623C17.0747 18.7286 16.5879 17.4551 15.8618 16.274C15.5738 15.808 15.3466 15.8039 15.0545 16.29C14.3406 17.4551 13.8538 18.7165 13.509 20.0342C13.4197 20.3837 13.5779 20.4681 13.8781 20.4681C14.4014 20.46 14.9207 20.464 15.4399 20.464ZM12.9248 32.3312C12.3163 31.0497 11.8822 29.8365 11.6145 28.567C11.5618 28.322 11.4076 28.2296 11.1602 28.2296C10.2312 28.2376 9.30222 28.2336 8.36919 28.2296C8.10551 28.2296 7.99598 28.2858 8.1623 28.559C9.24948 30.3708 10.791 31.6121 12.9248 32.3312ZM21.176 28.2336C20.7054 28.2336 20.2308 28.2376 19.7602 28.2336C19.5168 28.2296 19.3708 28.3179 19.314 28.571C19.0463 29.7361 18.6852 30.8689 18.1782 31.9536C18.1457 32.0219 18.1092 32.1264 18.1376 32.1786C18.1984 32.283 18.308 32.2228 18.3972 32.1906C20.2754 31.4876 21.7318 30.2824 22.7541 28.567C22.9123 28.3019 22.8108 28.2255 22.5431 28.2296C22.0847 28.2376 21.6304 28.2336 21.176 28.2336ZM12.9167 16.3744C10.787 17.1176 9.23325 18.3349 8.1623 20.1547C8.01626 20.4038 8.12174 20.4681 8.36108 20.464C9.29005 20.46 10.219 20.46 11.148 20.464C11.3954 20.464 11.5577 20.3757 11.6104 20.1306C11.8822 18.8812 12.3082 17.68 12.9167 16.3744ZM18.1173 16.4507C18.1214 16.5431 18.1132 16.5913 18.1295 16.6315C18.6406 17.7523 19.0422 18.9093 19.31 20.1065C19.3789 20.4199 19.5858 20.464 19.8495 20.464C20.6973 20.46 21.5411 20.4681 22.389 20.464C22.8839 20.46 22.9244 20.4038 22.6607 19.982C21.8413 18.6603 20.7217 17.6439 19.3384 16.9248C18.9651 16.7279 18.5757 16.519 18.1173 16.4507Z" fill="#FF8400"/>
<path d="M15.4332 41.3382C12.7923 41.3382 10.1473 41.3382 7.50647 41.3382C6.86146 41.3382 6.85335 41.3302 6.85335 40.6834C6.86146 39.3697 6.71137 39.5425 7.98921 39.5385C13.0965 39.5344 18.1998 39.5344 23.3071 39.5344C24.0454 39.5344 24.0535 39.5344 24.0454 40.2415C24.0332 41.4989 24.2158 41.3302 22.9217 41.3342C20.4228 41.3422 17.928 41.3382 15.4332 41.3382Z" fill="#FF8400"/>
<path d="M32.4439 45.8135C32.0504 45.705 31.6569 45.6086 31.2675 45.4881C30.9308 45.3837 31.0647 45.1346 31.1215 44.9257C31.6407 42.9893 32.164 41.057 32.6873 39.1206C33.1133 37.5458 33.5514 35.9751 33.957 34.3922C34.0625 33.9744 34.237 33.8941 34.6426 34.0026C35.8758 34.3239 35.8758 34.3079 35.5391 35.5332C34.6426 38.8234 33.7542 42.1136 32.8618 45.4038C32.805 45.6207 32.7887 45.8818 32.4439 45.8135Z" fill="#FF8400"/>
<path d="M36.4495 31.0903C36.4089 31.0822 36.3765 31.0742 36.344 31.0662C34.6402 30.5961 34.9242 30.9537 35.3055 29.4391C35.4475 28.8767 35.6179 28.3183 35.7517 27.7519C35.8288 27.4224 36.0032 27.33 36.3156 27.4385C36.486 27.4947 36.6564 27.547 36.8308 27.5872C37.7233 27.8081 37.63 27.7438 37.419 28.5714C37.2324 29.3066 37.0255 30.0377 36.8186 30.7689C36.7659 30.9537 36.7294 31.1746 36.4495 31.0903Z" fill="#FF8400"/>
<path d="M37.0861 23.5815C36.9765 23.9832 36.871 24.389 36.7615 24.7907C36.7128 24.9634 36.6033 25.0237 36.4289 24.9715C36.3964 24.9634 36.364 24.9594 36.3315 24.9514C34.9685 24.7103 34.8103 24.409 35.3539 23.1396C35.4309 22.9588 35.5364 22.8865 35.7271 22.9387C36.1165 23.0431 36.51 23.1436 36.8994 23.248C37.0779 23.2962 37.1266 23.4087 37.0861 23.5815Z" fill="#FF8400"/>
<path d="M38.9684 23.7825C39.3457 23.887 39.723 23.9914 40.1002 24.0919C40.2868 24.1401 40.3842 24.2445 40.3193 24.4454C40.3031 24.4896 40.299 24.5418 40.2909 24.586C39.9988 25.9519 39.8284 26.0403 38.51 25.5301C38.3234 25.4578 38.2382 25.3613 38.2869 25.1725C38.3883 24.7828 38.4897 24.3932 38.6033 24.0035C38.652 23.8227 38.7656 23.7223 38.9684 23.7825Z" fill="#FF8400"/>
<path d="M33.1677 24.12C33.1191 24.108 33.0744 24.0959 33.0258 24.0839C31.6749 23.7906 31.5735 23.5817 32.1008 22.3002C32.1779 22.1154 32.2753 22.0431 32.4659 22.0792C32.4984 22.0872 32.5308 22.0913 32.5633 22.0953C33.902 22.3403 34.0561 22.6256 33.5328 23.8991C33.4558 24.0758 33.3706 24.1843 33.1677 24.12Z" fill="#FF8400"/>
</svg>
