<svg width="48" height="50" viewBox="0 0 48 50" fill="none" xmlns="http://www.w3.org/2000/svg">
<path d="M48 12.8976C47.2358 13.8753 46.369 14.7403 45.5401 15.6511C45.3538 15.8559 45.1029 15.9353 44.8482 15.906C43.6391 15.7807 42.6696 16.2194 41.9434 17.3183C41.6887 17.7027 41.1564 17.9367 41.0994 18.3755C41.0462 18.8058 41.5328 19.1234 41.7762 19.4911C47.4449 28.1361 43.0536 40.2701 33.5221 42.2925C32.8339 42.4387 32.8339 42.4387 32.8339 43.195C32.8339 44.9457 32.8377 46.6965 32.8339 48.443C32.8301 49.3623 32.5411 49.6798 31.7009 49.6798C21.4926 49.6798 11.2805 49.6798 1.07216 49.6798C0.258535 49.6798 0 49.3999 0 48.5224C0 34.7296 0 20.9368 0 7.14398C0 6.25816 0.254733 5.97821 1.06836 5.97821C3.14424 5.97403 5.22012 5.96985 7.296 5.98239C7.6876 5.98657 7.8739 5.91136 7.88911 5.40159C7.93093 4.17733 8.85861 3.29569 10.1057 3.22048C10.4174 3.20377 10.7292 3.20377 11.041 3.2163C11.3451 3.22466 11.4592 3.07424 11.4554 2.74833C11.4478 2.20096 11.444 1.64941 11.4592 1.10205C11.482 0.329047 11.7823 0.00313378 12.4743 0.00313378C15.0977 -0.00104459 17.721 -0.00104459 20.3406 0.00313378C21.0211 0.00313378 21.3063 0.324869 21.3177 1.0728C21.3253 1.58674 21.3481 2.10486 21.3139 2.61462C21.2797 3.10767 21.4698 3.24555 21.8842 3.22048C22.272 3.19541 22.6636 3.19959 23.0514 3.27062C24.0551 3.45865 24.7585 4.18569 24.8878 5.30131C24.9486 5.84032 25.1311 5.9991 25.6253 5.99075C27.6062 5.95732 29.5908 5.97821 31.5716 5.97821C32.5754 5.97821 32.8263 6.25398 32.8301 7.33618C32.8301 9.17049 32.8301 11.009 32.8301 12.8433C32.8301 13.587 32.8339 13.5787 33.4878 13.7249C35.6854 14.2054 37.6814 15.179 39.4037 16.7668C39.7459 17.0802 39.9474 17.076 40.244 16.7166C40.704 16.1567 41.2021 15.6344 41.6963 15.1121C41.8864 14.9074 41.9853 14.6901 41.9929 14.3935C42.0043 13.8962 42.0537 13.4032 42.0727 12.906C42.0879 12.5257 42.2134 12.2123 42.4567 11.9449C43.1335 11.2054 43.8064 10.4658 44.4756 9.72621C44.7531 9.42119 45.0687 9.27495 45.4489 9.44626C45.8519 9.63011 45.9735 10.0062 45.9469 10.4533C45.9355 10.6914 45.9127 10.9296 45.8899 11.1719C45.8367 11.7026 45.8937 11.7694 46.388 11.736C46.7149 11.7109 47.0343 11.6148 47.3651 11.6901C47.6426 11.7527 47.8403 11.9366 47.9886 12.1915C48 12.4171 48 12.6553 48 12.8976ZM21.3633 37.901C20.1885 36.4469 19.3217 34.9511 18.7324 33.2714C18.6373 32.9998 18.4358 33.0081 18.2305 33.0081C16.8732 33.0081 15.5121 33.0123 14.1548 33.0081C13.5579 33.0081 13.2043 32.6697 13.2157 32.1307C13.2271 31.6084 13.5655 31.295 14.1434 31.295C15.3296 31.2908 16.5158 31.2783 17.702 31.2992C18.067 31.3075 18.1621 31.1989 18.086 30.8019C17.8845 29.7239 17.7819 28.6334 17.8313 27.5303C17.8807 26.4021 17.8959 26.4021 16.8846 26.4021C15.9645 26.4021 15.0406 26.4188 14.1206 26.3938C13.3868 26.3729 12.9876 25.6918 13.3145 25.0692C13.5122 24.6932 13.8316 24.6096 14.1966 24.6138C15.3676 24.6179 16.5386 24.6012 17.7096 24.6221C18.0708 24.6305 18.2419 24.4842 18.3331 24.104C18.6715 22.7001 19.2076 21.3881 19.9338 20.1763C20.1391 19.8337 20.1125 19.7167 19.7171 19.7209C18.2647 19.7334 16.8124 19.7251 15.36 19.7251C14.9076 19.7251 14.4551 19.7376 14.0027 19.7167C13.5541 19.6958 13.2537 19.3741 13.2195 18.927C13.1853 18.4799 13.4362 18.108 13.8734 18.0078C14.0863 17.9576 14.3069 17.9493 14.5236 17.9493C16.6945 17.9451 18.8654 17.9451 21.0364 17.9451C21.2873 17.9451 21.5268 17.9451 21.7321 17.7278C23.4392 15.8851 25.4505 14.6233 27.7659 13.9464C28.0548 13.8628 28.1309 13.6873 28.127 13.3906C28.1156 12.8057 28.1118 12.2249 28.127 11.6399C28.1347 11.2889 28.013 11.1427 27.6898 11.151C26.9408 11.1636 26.1918 11.1678 25.4429 11.151C25.1159 11.1427 24.979 11.2639 24.9448 11.6441C24.8764 12.392 24.633 12.626 23.9905 12.626C18.9301 12.6302 13.8734 12.6302 8.81299 12.626C8.15905 12.626 7.89291 12.3628 7.88531 11.6441C7.88151 11.2513 7.73323 11.1385 7.40626 11.1469C6.7181 11.1636 6.03374 11.151 5.34558 11.151C4.66123 11.151 4.65743 11.151 4.65743 11.924C4.65743 22.5288 4.65743 33.1335 4.65743 43.7382C4.65743 44.5154 4.65743 44.5154 5.38741 44.5154C12.7252 44.5154 20.063 44.5154 27.4047 44.5154C27.5149 44.5154 27.6252 44.5112 27.7316 44.5154C28.0054 44.5279 28.1347 44.39 28.127 44.085C28.1194 43.6922 28.0966 43.2911 28.1347 42.9025C28.1879 42.3802 28.013 42.1462 27.5415 42.0167C26.1234 41.6198 24.8117 40.9429 23.6141 40.0111C23.3175 39.7813 23.0172 39.6893 22.656 39.6935C19.9072 39.7061 17.1583 39.7019 14.4133 39.6977C14.2118 39.6977 14.0027 39.6977 13.8088 39.6476C13.4742 39.5556 13.2765 39.2966 13.2309 38.9205C13.1853 38.5403 13.3335 38.252 13.6301 38.0598C13.8392 37.9261 14.0749 37.9135 14.3107 37.9135C15.668 37.9135 17.0291 37.9135 18.3864 37.9135C19.3293 37.901 20.2798 37.901 21.3633 37.901ZM42.6582 28.0484C42.662 25.0734 41.7838 22.2989 40.1641 20.0844C39.9246 19.7543 39.7611 19.6791 39.4798 20.0217C39.1262 20.4563 38.746 20.8658 38.3544 21.2585C38.0768 21.5385 38.0844 21.7516 38.3088 22.0817C39.6585 24.0915 40.2592 26.3394 40.0767 28.8423C39.6471 34.7087 34.6132 38.9289 29.3741 37.7965C24.6292 36.7687 21.485 32.0262 22.1199 26.7071C22.5571 23.0552 24.3783 20.402 27.4389 18.9395C30.6402 17.4102 33.7198 17.8573 36.5484 20.122C36.8032 20.3268 36.9552 20.3393 37.172 20.0802C37.5636 19.6123 37.9704 19.1568 38.3962 18.7348C38.6813 18.4548 38.6205 18.3086 38.3468 18.0704C35.7348 15.8058 32.7731 14.899 29.4882 15.3837C23.0856 16.3364 18.6449 22.838 19.5612 29.866C20.4661 36.8355 26.4998 41.7284 32.8453 40.6462C38.4836 39.6852 42.6468 34.341 42.6582 28.0484ZM1.56261 27.7893C1.56261 34.224 1.56261 40.6587 1.56261 47.0934C1.56261 47.8957 1.56261 47.8957 2.3116 47.8957C4.69925 47.8957 7.09069 47.8957 9.47834 47.8957C16.5044 47.8957 23.5305 47.8957 30.5565 47.8957C31.1991 47.8957 31.2029 47.8915 31.2029 47.1812C31.2029 46.0488 31.2029 44.9165 31.2029 43.7842C31.2029 42.6393 31.2029 42.656 30.1801 42.5098C29.8265 42.4596 29.7353 42.5975 29.7429 42.9485C29.7543 43.617 29.7467 44.2856 29.7467 44.9541C29.7429 46.0279 29.511 46.287 28.5301 46.287C21.9412 46.287 15.3524 46.287 8.76356 46.287C7.18574 46.287 5.60792 46.2912 4.0339 46.287C3.37616 46.287 3.09481 45.9945 3.04158 45.2758C3.02638 45.0878 3.03398 44.8998 3.03398 44.7118C3.03398 33.4886 3.03398 22.2655 3.03398 11.0424C3.03398 10.8209 3.03018 10.5953 3.04919 10.3739C3.11382 9.64682 3.38376 9.37105 4.04531 9.36687C5.01481 9.35852 5.98052 9.37105 6.95002 9.36269C7.98796 9.35434 7.84349 9.51312 7.8777 8.34735C7.88911 7.90026 7.75984 7.74984 7.34543 7.75402C5.66115 7.77491 3.97307 7.76238 2.28499 7.76238C1.56261 7.76238 1.55881 7.76238 1.55881 8.53538C1.56261 14.9575 1.56261 21.3755 1.56261 27.7893ZM23.6369 28.015C23.6521 28.391 23.6407 28.7712 23.6863 29.1473C24.4315 35.2185 30.8835 38.2562 35.4078 34.6711C38.727 32.0387 39.5064 27.008 37.1758 23.3268C36.9667 22.9967 36.826 22.9132 36.5522 23.2474C36.1872 23.6945 35.7994 24.1165 35.3926 24.5218C35.1303 24.7851 35.0999 25.0065 35.2786 25.3617C36.2405 27.2754 36.2063 29.2016 35.0961 31.0067C33.9897 32.8034 32.3929 33.5931 30.4082 33.3215C27.0245 32.8619 25.1121 28.6292 26.8192 25.3868C28.1955 22.7711 31.1458 21.8895 33.5145 23.4062C33.8414 23.6151 34.0201 23.5775 34.2596 23.285C34.6018 22.863 34.982 22.4786 35.347 22.0775C35.75 21.6346 35.7538 21.6262 35.2634 21.2627C33.7388 20.1429 32.0697 19.6582 30.2409 19.9047C26.3781 20.427 23.6483 23.7906 23.6369 28.015ZM16.4017 10.9045C18.5537 10.9045 20.7056 10.9045 22.8575 10.9045C23.1008 10.9045 23.3328 10.9254 23.329 10.5285C23.3213 8.91561 23.3328 7.30693 23.3213 5.69408C23.3175 5.24282 23.0704 5.01301 22.6636 5.00047C22.3518 4.99211 22.0401 5.01301 21.7283 4.99211C21.4242 4.9754 21.3253 5.11747 21.3139 5.44338C21.2797 6.59243 21.0592 6.81806 20.0288 6.81806C17.6108 6.81806 15.1927 6.81806 12.7785 6.81806C12.5922 6.81806 12.4059 6.80135 12.2196 6.77628C11.7671 6.70943 11.539 6.40023 11.4706 5.92389C11.3337 4.99211 11.3337 4.99211 10.444 4.99629C10.4136 4.99629 10.3832 4.99629 10.349 4.99629C9.63422 5.00047 9.48594 5.15507 9.48214 5.91971C9.47834 7.37797 9.49355 8.83204 9.47453 10.2903C9.46693 10.7541 9.5962 10.9171 10.0334 10.9129C12.1587 10.892 14.2802 10.9045 16.4017 10.9045ZM34.3129 27.898C34.3357 27.5512 34.2444 27.1041 34.1 26.6653C33.9783 26.2977 33.8604 26.1932 33.5639 26.5275C32.948 27.2294 32.3054 27.9105 31.6629 28.5874C31.2865 28.9802 30.8151 28.9843 30.4957 28.625C30.1763 28.2615 30.1915 27.7684 30.5679 27.3422C31.1762 26.6528 31.8036 25.9801 32.4195 25.299C32.7427 24.9439 32.7274 24.877 32.294 24.6848C31.6819 24.4132 31.0432 24.3631 30.4044 24.5051C28.743 24.8686 27.5758 26.6695 27.8115 28.4579C28.07 30.4259 29.568 31.7504 31.3777 31.6042C33.0164 31.4663 34.3129 29.8869 34.3129 27.898ZM16.3561 5.03808C17.3218 5.03808 18.2913 5.02972 19.257 5.04225C19.5802 5.04643 19.7019 4.91273 19.6943 4.56174C19.6791 3.78874 19.6829 3.01992 19.6943 2.24692C19.6981 1.92519 19.5916 1.77894 19.2836 1.77894C17.3484 1.78312 15.417 1.78312 13.4818 1.77894C13.1777 1.77894 13.0674 1.91683 13.075 2.24274C13.0864 3.01574 13.094 3.78456 13.0712 4.55756C13.0598 4.95869 13.2195 5.05061 13.5465 5.04643C14.4855 5.02972 15.4208 5.03808 16.3561 5.03808ZM28.127 7.76238C27.3933 7.76238 26.6595 7.7582 25.9295 7.76238C24.884 7.77491 24.9714 7.59524 24.9524 8.8404C24.9448 9.24988 25.0893 9.37523 25.4505 9.36687C26.5264 9.35016 27.6024 9.35852 28.6783 9.36269C29.4577 9.36687 29.7429 9.68025 29.7505 10.5494C29.7543 11.1678 29.7505 11.782 29.7505 12.4004C29.7505 13.5411 29.7505 13.5285 30.7884 13.4909C31.123 13.4784 31.2143 13.3363 31.2143 12.9937C31.2029 11.4185 31.2029 9.83903 31.2143 8.26378C31.2181 7.88355 31.0926 7.74984 30.7504 7.75402C29.8722 7.77491 28.9977 7.76238 28.127 7.76238ZM44.198 12.5926C43.6695 12.931 43.6239 13.4324 43.6315 13.9547C43.6353 14.1219 43.7304 14.1929 43.871 14.2013C44.3577 14.2347 44.7987 14.1595 45.0801 13.587C44.563 13.516 44.2589 13.211 44.198 12.5926Z" fill="#FF8400"/>
<path d="M8.90287 26.9996C8.85724 26.987 8.78881 26.9912 8.73938 26.9578C8.07403 26.5483 7.52655 25.9926 7.19578 25.2405C7.0475 24.902 7.21479 24.5594 7.49994 24.3505C7.83831 24.0998 8.22231 24.104 8.48465 24.4299C8.86105 24.8937 9.09677 24.7474 9.40853 24.363C9.76972 23.9117 10.1689 23.4981 10.5643 23.0886C10.9597 22.6791 11.4046 22.6708 11.7315 23.0301C12.0471 23.3769 12.0509 23.9201 11.6973 24.3212C10.9902 25.1235 10.2678 25.9048 9.5454 26.6904C9.37431 26.87 9.1652 26.9829 8.90287 26.9996Z" fill="#FF8400"/>
<path d="M11.9573 36.9486C11.9649 37.2244 11.8508 37.4458 11.6797 37.6339C10.9763 38.4111 10.2768 39.1966 9.5582 39.9612C9.12478 40.425 8.72557 40.4167 8.28834 39.9612C7.99179 39.6562 7.70664 39.3428 7.42909 39.0127C7.07171 38.5907 7.0603 38.1436 7.36826 37.7718C7.67242 37.4041 8.14387 37.3414 8.48985 37.7342C8.85864 38.1562 9.08676 38.0392 9.38711 37.6715C9.77492 37.2035 10.1931 36.7606 10.6114 36.326C10.8699 36.0586 11.1854 35.9792 11.52 36.1589C11.8166 36.3219 11.9534 36.5935 11.9573 36.9486Z" fill="#FF8400"/>
<path d="M11.9572 17.0382C11.9648 17.2889 11.8317 17.5145 11.653 17.7109C10.9611 18.4714 10.2729 19.2444 9.57336 19.9965C9.12473 20.477 8.72552 20.4645 8.26928 19.984C7.98794 19.6873 7.71039 19.3864 7.44425 19.0772C7.06786 18.6343 7.05265 18.1789 7.38722 17.8028C7.7256 17.4268 8.17424 17.4017 8.53542 17.8446C8.85859 18.2416 9.04489 18.1079 9.30723 17.7987C9.72164 17.314 10.1589 16.846 10.5961 16.3864C10.8546 16.1148 11.174 16.0437 11.5048 16.2109C11.7937 16.3613 11.9572 16.6245 11.9572 17.0382Z" fill="#FF8400"/>
<path d="M11.9606 30.3465C11.9682 30.593 11.8427 30.8019 11.6716 30.9899C10.9683 31.7629 10.2687 32.5443 9.55773 33.3089C9.14711 33.7518 8.7365 33.756 8.32589 33.3298C8.01032 33.0039 7.69856 32.6655 7.40581 32.3103C7.07504 31.9092 7.07884 31.4663 7.383 31.1153C7.69096 30.756 8.18521 30.7016 8.50458 31.0986C8.88098 31.5666 9.10909 31.4078 9.41325 31.0317C9.79725 30.5596 10.2193 30.1292 10.6337 29.6863C10.896 29.4063 11.2154 29.3604 11.5386 29.5275C11.8237 29.6779 11.9682 29.9495 11.9606 30.3465Z" fill="#FF8400"/>
</svg>
