<svg width="31" height="32" viewBox="0 0 31 32" fill="none" xmlns="http://www.w3.org/2000/svg">
<path d="M29.1462 1.24031V12.8C29.1462 12.8951 29.1462 12.986 29.1441 13.0667V13.0749V13.0832C29.1379 13.414 29.1213 13.7592 29.0922 14.1085C29.0901 14.1251 29.088 14.1395 29.088 14.1561C29.0007 14.9581 28.7825 16.2233 28.2422 17.7364C27.6041 19.5245 26.671 21.2362 25.4697 22.8217L25.4635 22.83C25.4157 22.8899 25.3658 22.9499 25.3076 23.0222L25.3055 23.0243L25.3034 23.0264C24.8358 23.5907 23.9941 24.3452 23.3685 24.8765C22.4998 25.6165 21.4565 26.4393 20.3467 27.2579C18.3349 28.7442 16.4332 29.9824 15.1966 30.6212C13.96 29.9824 12.0584 28.7442 10.0466 27.2579C8.93881 26.4393 7.89342 25.6165 7.02469 24.8765C5.89201 23.9111 5.34749 23.3385 5.08978 23.0264L5.0877 23.0243L5.08562 23.0222C5.03158 22.9581 4.97963 22.892 4.9256 22.8279L4.92352 22.8238C3.72225 21.2382 2.78909 19.5287 2.15105 17.7385C1.61277 16.2295 1.39454 14.9664 1.30517 14.1643C1.30517 14.1519 1.30309 14.1395 1.30101 14.1271C1.26984 13.784 1.25322 13.4346 1.24699 13.0832V13.0791V13.0749C1.24491 12.9943 1.24491 12.9054 1.24491 12.7979V1.24031H29.1462ZM30.3932 0H4.87845e-10C4.87845e-10 0 4.87845e-10 3.62171 4.87845e-10 12.8C4.87845e-10 12.9034 -8.11797e-06 13.0047 0.00207019 13.1059C0.00830512 13.4987 0.0290882 13.8832 0.0644195 14.2594C0.0644195 14.2636 0.0644195 14.2656 0.0644195 14.2698C0.259781 16.0703 1.01629 19.7292 3.92801 23.5721C3.93008 23.5762 3.93424 23.5804 3.93632 23.5845C3.99867 23.663 4.0631 23.7395 4.12545 23.816C5.87746 25.9349 12.4865 30.8093 15.1945 32C17.9026 30.8072 24.5116 25.9328 26.2636 23.816C26.326 23.7395 26.3904 23.663 26.4527 23.5845C26.4548 23.5804 26.459 23.5762 26.461 23.5721C29.3728 19.7292 30.1313 16.0703 30.3246 14.2698C30.3246 14.2656 30.3246 14.2636 30.3267 14.2594C30.36 13.8832 30.3807 13.4987 30.387 13.1059C30.389 13.0047 30.389 12.9034 30.389 12.8C30.3932 3.62171 30.3932 0 30.3932 0Z" fill="#FF8400"/>
<path d="M22.8129 17.9542C22.8129 17.9542 19.5871 19.4734 18.5879 21.0493C15.6547 19.8248 20.5256 17.4893 22.7559 16.9036C22.5811 14.9762 20.7612 13.7518 19.7049 13.1093C18.6487 12.4669 19.2946 11.7073 19.2946 11.7073H24.1655L19.8797 8.98255L20.29 7.96973L19.2338 7.15344V5.34703L18.4283 4.90864C18.4283 4.90864 18.2079 3.55194 18.0332 2.72054C17.5715 2.21564 15.881 1.3521 14.3743 0.6436C13.4013 0.18603 9.20974 0.267892 9.20974 0.267892L0.570313 0.267893L0.570312 16.9036C0.570312 16.9036 3.39384 21.8054 6.06958 24.7868C9.20974 27.5607 15.3887 31.461 15.3887 31.461L15.8333 26.7104L10.0467 21.3705C10.0467 21.3705 10.6052 23.0938 10.9852 24.201C6.11424 22.8859 3.41663 13.5175 10.0163 7.39153C9.66294 12.3535 7.61123 14.4547 10.1911 16.0873C11.2017 16.6201 13.3978 13.85 16.236 12.1343C15.8827 14.6021 11.9502 18.8914 14.2983 21.4007C18.9336 21.4007 20.461 22.8595 21.4565 24.7868C22.6305 24.2048 23.8045 20.6411 23.8045 20.6411L24.0971 23.0333L24.8 22.4513V20.524L22.8129 17.9542ZM3.70158 9.28488L3.39384 6.76798L5.90148 4.66678L7.46304 4.33799L3.70158 9.28488ZM8.52311 2.63363L14.6858 4.60253L13.7626 2.63363L17.942 5.12784L17.5886 6.04616H16.0498L15.3887 5.21476L11.4715 5.74005L8.52311 2.63363ZM12.353 9.94244L13.6752 8.80492L17.0643 8.45347L17.4594 10.1616L18.7817 11.2122H16.7147L12.353 9.94244Z" fill="#FF8400"/>
<path d="M23.9298 17.6175C23.4016 15.8753 23.4662 15.2404 25.4571 14.3636C25.6623 15.384 24.9214 16.4875 23.9298 17.6175Z" fill="#FF8400"/>
<path d="M18.0675 25.0474L17.2734 25.5122V30.1131H18.0675L19.2986 28.6703V28.0518L18.0675 25.0474Z" fill="#FF8400"/>
</svg>
