<svg width="48" height="50" viewBox="0 0 48 50" fill="none" xmlns="http://www.w3.org/2000/svg">
<path d="M24.0078 0.021397C30.0559 0.021397 36.1082 0.0756589 42.1563 0.000527024C45.2617 -0.0412129 48.0208 2.40057 47.9999 5.8316C47.954 13.1987 47.9874 20.57 47.9832 27.9412C47.9832 31.3389 45.5873 33.7222 42.1813 33.7264C37.9823 33.7306 33.7833 33.7264 29.5842 33.7347C29.3672 33.7347 28.9957 33.5845 28.9623 33.8725C28.9247 34.1939 28.7786 34.5821 29.0792 34.8993C29.4006 35.2332 29.6802 35.6047 29.843 36.0471C30.0016 36.4771 30.0559 36.9153 29.8931 37.3536C29.7804 37.65 29.818 37.8879 29.9975 38.1634C30.8865 39.5199 30.5985 41.0017 29.2628 41.9408C26.7083 43.7398 23.9368 45.1089 20.9566 46.0438C20.4933 46.1899 20.1635 46.3277 20.1927 46.9204C20.2094 47.3211 19.934 47.6592 19.6042 47.9013C18.9405 48.3896 18.2852 48.8822 17.6007 49.3413C16.7575 49.9048 15.8893 49.7587 15.2966 48.9489C13.3056 46.2233 11.3272 43.4894 9.36123 40.7429C8.77269 39.9248 8.92713 39.0482 9.72854 38.4347C10.3546 37.9547 11.0016 37.5039 11.6402 37.0447C12.066 36.74 12.546 36.6106 13.051 36.7692C13.3975 36.8778 13.5102 36.7358 13.602 36.4478C13.8483 35.7007 14.0945 34.9494 14.3742 34.2148C14.5286 33.8057 14.3992 33.718 13.9985 33.7222C11.2562 33.7347 8.5139 33.7306 5.77159 33.7264C2.75797 33.7222 0.554097 31.8523 0.0532177 28.8804C0.00730373 28.5966 0.0031305 28.3002 0.0031305 28.008C-0.0010435 20.5867 -0.0010435 13.1653 0.0031305 5.74394C0.0031305 2.82632 1.88143 0.580712 4.74061 0.0798327C5.09123 0.0172227 5.45854 0.0255712 5.8175 0.0255712C11.874 0.0172233 17.9388 0.021397 24.0078 0.021397ZM28.4364 31.9232C28.5532 32.0735 28.6618 32.0443 28.7578 32.0443C33.3325 32.0443 37.9072 32.0651 42.486 32.0318C44.6816 32.0151 46.2885 30.358 46.2927 28.1499C46.3052 20.6451 46.3052 13.1361 46.2927 5.63124C46.2885 3.34807 44.6607 1.70352 42.3733 1.69934C30.1185 1.68682 17.8678 1.68682 5.61298 1.69934C3.28806 1.69934 1.68107 3.33137 1.6769 5.66464C1.66855 13.1361 1.66855 20.6075 1.6769 28.079C1.68107 30.3997 3.28806 32.0192 5.62133 32.0401C8.60156 32.0651 11.586 32.0401 14.5662 32.0526C14.9544 32.0526 15.1506 31.9149 15.2716 31.5434C15.6264 30.4331 16.0187 29.3354 16.3944 28.2334C16.5488 27.7868 16.7909 27.3986 17.1541 27.0897C18.0264 26.3426 19.2536 26.2257 20.222 26.7934C21.1987 27.3694 21.6787 28.4755 21.4533 29.6108C21.3364 30.2035 21.0985 30.7754 21.0526 31.4975C21.3114 31.3222 21.495 31.2011 21.6703 31.0759C23.6488 29.6609 25.6106 28.2209 27.6141 26.8351C28.1818 26.4428 28.4698 26.0296 28.3863 25.3283C28.2193 23.93 29.146 22.9658 30.6945 22.9784C32.5269 22.9951 34.3634 22.9784 36.1958 22.9867C36.4338 22.9867 36.6758 23.0159 36.9096 23.0535C37.7819 23.1912 38.4206 23.8591 38.5291 24.7398C38.6293 25.5579 38.6209 26.3843 38.5667 27.2024C38.4748 28.5715 37.6985 29.2644 36.3211 29.2727C35.1022 29.2811 33.8876 29.2811 32.6688 29.2686C32.3265 29.2644 32.0427 29.3521 31.763 29.5524C30.9324 30.1576 30.0851 30.7378 29.242 31.3305C28.9748 31.5309 28.7035 31.7312 28.4364 31.9232ZM28.8079 39.7745C28.7995 39.4531 28.7745 39.1818 28.5491 39.0608C28.3362 38.9481 28.1859 39.1902 28.0273 39.3029C27.2677 39.8329 26.5247 40.3797 25.7608 40.9057C25.285 41.2354 24.7758 41.1436 24.5086 40.7053C24.254 40.2921 24.3709 39.8538 24.8509 39.5116C25.7817 38.8437 26.725 38.1842 27.6558 37.5164C27.8353 37.387 28.0273 37.2534 28.1567 37.0823C28.4322 36.7233 28.1859 36.4437 27.9689 36.1724C27.7393 35.8843 27.5724 36.139 27.4096 36.2517C26.6082 36.811 25.8151 37.3828 25.0179 37.9463C24.4544 38.3428 23.9619 38.3303 23.653 37.9171C23.3399 37.4997 23.4735 37.0155 24.0286 36.6148C24.9887 35.9219 25.9445 35.2332 26.9212 34.5612C27.2718 34.3191 27.301 34.0812 27.0715 33.7514C26.7376 33.2673 26.5706 33.2297 26.0781 33.5803C25.2224 34.1814 24.3751 34.7908 23.5194 35.3918C23.198 35.6172 22.8474 35.659 22.5093 35.4419C22.2463 35.2708 22.1253 35.0036 22.1587 34.6906C22.1921 34.3316 22.4467 34.1271 22.718 33.9351C24.7633 32.4909 26.8043 31.0467 28.8413 29.6025C29.5967 29.0682 30.3522 28.5339 31.1036 27.9913C31.3707 27.7952 31.5418 27.5405 31.3957 27.1941C31.2705 26.8977 31.0493 26.7224 30.7154 26.7558C30.4858 26.7809 30.3105 26.9311 30.131 27.0605C27.6391 28.847 25.1473 30.6335 22.6512 32.4199C21.7997 33.0293 20.9608 33.6513 20.0967 34.2356C19.504 34.6363 18.8278 34.3191 18.7778 33.6346C18.7611 33.4342 18.8153 33.2255 18.8654 33.0293C19.1701 31.8189 19.4915 30.6084 19.792 29.398C19.9757 28.6508 19.5291 28.0957 18.8153 28.1374C18.2268 28.1708 18.0181 28.6007 17.8595 29.0724C16.8661 31.9733 15.881 34.8742 14.8834 37.771C14.7791 38.0715 14.8459 38.2844 15.0212 38.5265C16.2734 40.242 17.513 41.97 18.7569 43.6897C19.5374 44.7708 19.5416 44.7708 20.8314 44.3367C23.4818 43.4518 25.9612 42.2288 28.2444 40.6135C28.5658 40.3881 28.8287 40.1335 28.8079 39.7745Z" fill="#FF8400"/>
<path d="M4.31251 13.2534C4.34173 8.74963 7.90632 4.68416 12.9151 4.69668C17.7319 4.70921 21.5094 8.46997 21.4927 13.3202C21.476 18.2329 17.5149 21.8935 12.8483 21.881C8.15676 21.8685 4.30417 17.9742 4.31251 13.2534ZM9.17939 12.6523C9.17104 12.189 9.18774 11.7299 9.23783 11.2666C9.43818 9.50095 10.8866 8.15692 12.7022 8.06927C14.3802 7.98996 16.0164 9.29225 16.2961 10.9911C16.4797 12.1097 16.4714 13.245 16.2835 14.3637C16.2334 14.6642 16.2668 14.827 16.5298 14.9939C17.2602 15.4572 17.878 16.0583 18.3288 16.8013C18.5876 17.2228 18.7128 17.0934 18.8965 16.7637C19.6603 15.3905 19.99 13.9379 19.7646 12.3643C19.3514 9.50513 17.3396 7.24699 14.5764 6.56246C11.8299 5.8821 8.98321 6.9256 7.30527 9.22547C5.71498 11.4043 5.55637 14.5557 6.91709 16.747C7.13831 17.1018 7.28022 17.1435 7.51397 16.7637C7.91467 16.1167 8.44894 15.5825 9.07087 15.1442C9.28792 14.9898 9.40896 14.8186 9.338 14.5431C9.17522 13.9212 9.16687 13.2868 9.17939 12.6523ZM14.7266 13.0113C14.7183 13.0113 14.7141 13.0113 14.7058 13.0113C14.7058 12.7525 14.6932 12.4979 14.7099 12.2391C14.7266 11.9052 14.5764 11.78 14.2508 11.7841C13.2574 11.7925 12.264 11.7883 11.2706 11.7883C11.0034 11.7883 10.849 11.8801 10.8573 12.1765C10.8699 12.6899 10.8281 13.2075 10.874 13.7167C10.97 14.756 11.7172 15.4781 12.7064 15.5449C13.5955 15.6033 14.4553 14.9564 14.6515 14.0381C14.7225 13.7 14.7058 13.3535 14.7266 13.0113Z" fill="#FF8400"/>
<path d="M33.4737 14.3256C36.0073 14.3256 38.5451 14.3214 41.0787 14.3256C42.7191 14.3256 43.6541 15.2647 43.6624 16.9134C43.6624 17.3601 43.6624 17.8025 43.6624 18.2491C43.6541 19.8269 42.74 20.7869 41.1622 20.8328C40.2189 20.8579 39.2797 20.8412 38.3364 20.8412C34.2417 20.8412 30.147 20.8412 26.0524 20.8412C25.5348 20.8412 25.0256 20.8078 24.5539 20.5657C23.6941 20.1191 23.2975 19.3803 23.2641 18.4411C23.2433 17.8609 23.2474 17.2766 23.2641 16.6922C23.3059 15.319 24.2909 14.3423 25.6642 14.3339C28.2646 14.3172 30.8691 14.3256 33.4737 14.3256ZM33.4445 19.1549C35.9781 19.1549 38.5117 19.1549 41.0495 19.1549C41.7841 19.1549 41.9678 18.9754 41.9761 18.2533C41.9803 17.8442 41.9803 17.431 41.9761 17.022C41.972 16.1246 41.8676 16.016 40.966 16.016C36.7378 16.016 32.5054 16.016 28.2771 16.016C27.4381 16.016 26.5992 16.0077 25.7602 16.0202C25.1508 16.0286 24.9588 16.2247 24.9462 16.8216C24.9379 17.2682 24.9421 17.7107 24.9421 18.1573C24.9462 18.9629 25.1341 19.1591 25.9397 19.1591C28.4441 19.1549 30.9443 19.1549 33.4445 19.1549Z" fill="#FF8400"/>
<path d="M33.4899 5.78191C36.0611 5.78191 38.6281 5.77773 41.1993 5.78191C42.7103 5.78608 43.6536 6.73775 43.6619 8.26126C43.6661 8.82475 43.6745 9.39241 43.6578 9.9559C43.616 11.2624 42.6477 12.2224 41.3537 12.2224C36.0945 12.2266 30.8352 12.2266 25.5802 12.2224C24.4323 12.2224 23.5308 11.4961 23.3346 10.3566C23.1801 9.4592 23.1801 8.54509 23.3346 7.64768C23.5308 6.51236 24.4282 5.78608 25.5802 5.78191C28.214 5.77356 30.8519 5.78191 33.4899 5.78191ZM33.469 7.45568C32.6802 7.45568 31.8913 7.45568 31.1024 7.45568C29.3368 7.45568 27.5712 7.45151 25.8098 7.45985C25.1294 7.46403 24.9541 7.64351 24.9416 8.31135C24.9374 8.67031 24.9416 9.02928 24.9416 9.39241C24.9416 10.4568 25.096 10.6112 26.152 10.6112C31.0189 10.6112 35.8858 10.6112 40.7527 10.6112C40.9238 10.6112 41.0991 10.6196 41.2661 10.5987C41.7127 10.5403 41.984 10.3149 41.9756 9.82233C41.9631 9.35902 41.9756 8.89571 41.9756 8.43657C41.9715 7.59342 41.8462 7.46403 40.9781 7.46403C38.4737 7.45151 35.9734 7.45568 33.469 7.45568Z" fill="#FF8400"/>
</svg>
