<svg width="48" height="50" viewBox="0 0 48 50" fill="none" xmlns="http://www.w3.org/2000/svg">
<path d="M25.7188 28.5389C26.9701 25.8405 28.2256 23.1462 29.4769 20.4477C29.5782 20.2298 29.6713 20.0119 29.7766 19.794C30.5055 18.2856 31.7974 17.7702 33.2674 18.4909C37.2766 20.4603 41.2737 22.4632 45.2748 24.4535C45.9349 24.7804 46.599 25.0988 47.2551 25.434C48.0367 25.8321 48.1744 26.2427 47.7978 27.0556C45.9592 31.007 44.1206 34.9625 42.2821 38.9138C40.8687 41.9517 39.4594 44.9896 38.0501 48.0317C37.6695 48.8571 37.2928 49.008 36.4991 48.6183C33.0649 46.9171 29.6348 45.2033 26.2048 43.5021C25.5649 43.1836 25.5851 43.1627 25.3219 43.8331C24.9655 44.7382 24.354 45.4379 23.4996 45.8737C23.2039 46.0246 23.0905 46.1586 23.1796 46.5358C23.4186 47.5582 23.1432 48.4632 22.3332 49.1169C21.5476 49.7538 20.6526 49.8544 19.7536 49.3977C18.8302 48.9325 18.3807 48.1364 18.3969 47.0679C18.3969 46.9464 18.3929 46.8249 18.4172 46.7076C18.482 46.4184 18.3605 46.3472 18.1054 46.3472C16.1939 46.3514 14.2784 46.3556 12.3669 46.3472C12.047 46.3472 12.0389 46.4855 12.0551 46.7578C12.1442 48.0945 11.6056 49.0666 10.5365 49.4856C9.63743 49.8376 8.78699 49.6952 8.05805 49.0541C7.321 48.4088 7.07397 47.5498 7.27645 46.586C7.3534 46.2173 7.30075 46.0581 6.97273 45.8695C5.57153 45.0818 4.82639 43.8457 4.82639 42.1822C4.81829 35.0253 4.81829 27.8643 4.82639 20.7075C4.82639 18.3526 6.56776 16.555 8.83559 16.5425C9.70222 16.5383 10.5648 16.5173 11.4314 16.5508C11.9012 16.5718 12.0227 16.4042 12.0187 15.9349C12.0025 11.7531 12.0025 7.5713 12.0106 3.3895C12.0146 0.774832 14.6267 -0.825816 16.8256 0.443807C17.8948 1.06395 18.4617 2.04027 18.4617 3.32246C18.4698 7.50426 18.4658 11.6861 18.4658 15.8679C18.4658 16.5383 18.4658 16.5383 19.1299 16.5425C19.9763 16.5425 20.8267 16.5383 21.6731 16.5467C23.8802 16.5634 25.6378 18.3652 25.6459 20.6488C25.658 23.2803 25.6499 25.9117 25.6499 28.5431C25.6661 28.5348 25.6945 28.5348 25.7188 28.5389ZM6.48271 31.4344C6.48271 34.908 6.47866 38.3817 6.48271 41.8595C6.48676 43.6068 7.45869 44.6125 9.14742 44.6167C10.3785 44.6208 11.6096 44.6167 12.8367 44.6167C15.6796 44.6167 18.5225 44.6208 21.3654 44.6125C22.5843 44.6083 23.4915 43.9798 23.8195 42.9615C23.945 42.5719 23.8964 42.3037 23.4915 42.1403C23.1675 42.0104 22.8556 41.8428 22.5438 41.6835C21.0495 40.9209 20.6 39.5382 21.3249 37.9794C22.147 36.2154 22.965 34.4471 23.7871 32.6788C23.8802 32.4777 23.9734 32.2808 23.9734 32.0461C23.9693 28.2792 23.9896 24.5122 23.9572 20.7452C23.945 19.3834 23.1432 18.4532 21.8351 18.3107C20.8146 18.2018 19.7779 18.2688 18.7493 18.2604C18.4577 18.2563 18.4577 18.4783 18.4577 18.692C18.4577 19.5343 18.4658 20.3765 18.4536 21.2187C18.4334 22.547 18.6602 22.3501 17.3116 22.3878C16.8823 22.4003 16.7771 22.216 16.7852 21.8095C16.8054 20.7955 16.7811 19.7815 16.7973 18.7633C16.8013 18.3987 16.7123 18.2269 16.3235 18.2437C15.5945 18.2688 14.8615 18.2646 14.1285 18.2437C13.7843 18.2353 13.6547 18.3568 13.6628 18.7172C13.679 19.5426 13.679 20.3681 13.6669 21.1936C13.6466 22.5428 13.8937 22.3501 12.4925 22.3836C12.132 22.392 11.9903 22.2621 11.9984 21.8808C12.0146 20.8332 11.9944 19.7815 12.0065 18.7339C12.0106 18.3861 11.9093 18.2353 11.5529 18.2437C10.6904 18.2646 9.82372 18.2353 8.96113 18.2563C8.33343 18.2688 7.74622 18.449 7.26836 18.9057C6.67305 19.4714 6.48271 20.2005 6.48271 21.005C6.48271 24.487 6.48271 27.9607 6.48271 31.4344ZM22.7261 39.3119C22.6977 39.7938 23.05 39.9698 23.4024 40.1457C27.7031 42.2827 32.0039 44.4197 36.2966 46.5735C36.6651 46.7578 36.7988 46.6698 36.9608 46.3137C37.9894 44.0594 39.0342 41.8134 40.079 39.5675C41.5288 36.4542 42.9786 33.3409 44.4324 30.2276C44.5539 29.972 44.6835 29.7751 44.2948 29.5823C41.6949 28.3127 39.1071 27.0179 36.5153 25.7231C34.616 24.7762 32.7086 23.8376 30.8214 22.8529C30.4731 22.6685 30.3395 22.6517 30.1613 23.0372C27.7558 28.2331 25.3341 33.4205 22.9204 38.6121C22.8233 38.83 22.722 39.0479 22.7261 39.3119ZM16.7892 9.81304C16.7892 7.71377 16.7973 5.61868 16.7852 3.5194C16.7771 2.50956 16.0643 1.73019 15.2098 1.74695C14.331 1.76371 13.675 2.48442 13.675 3.50264C13.6628 7.697 13.6709 11.8914 13.6669 16.0857C13.6669 16.421 13.7803 16.5467 14.1042 16.5383C14.817 16.5215 15.5338 16.5089 16.2465 16.5425C16.7001 16.5634 16.8054 16.3874 16.8013 15.9475C16.7811 13.9027 16.7892 11.8579 16.7892 9.81304ZM32.1295 19.9281C31.765 19.9784 31.5261 20.1335 31.3924 20.4477C31.2669 20.741 31.3681 20.9841 31.5504 21.2061C31.7083 21.3947 31.931 21.4785 32.1416 21.5833C36.2764 23.6406 40.4111 25.698 44.5458 27.7512C45.5016 28.2247 45.291 28.2833 45.7931 27.3112C45.9956 26.9215 45.9632 26.7414 45.5502 26.536C41.2453 24.4116 36.9486 22.2663 32.6478 20.1293C32.4696 20.0455 32.2793 19.9868 32.1295 19.9281ZM10.3785 47.1475C10.3866 46.7578 10.0343 46.3765 9.65363 46.3682C9.28106 46.3598 8.90848 46.7285 8.90039 47.1182C8.89229 47.5037 9.24866 47.8892 9.62528 47.8976C10.0019 47.9101 10.3704 47.5414 10.3785 47.1475ZM20.0776 47.0972C20.0533 47.4786 20.4056 47.8766 20.7822 47.8976C21.1548 47.9185 21.5354 47.5624 21.5557 47.1685C21.5759 46.7872 21.2277 46.3891 20.851 46.364C20.4866 46.343 20.0978 46.7076 20.0776 47.0972Z" fill="#FF8400"/>
<path d="M30.8978 0.85001C31.8494 0.837439 32.6999 1.18103 33.445 1.75509C34.1092 2.27048 34.6923 2.30819 35.4253 1.85146C36.4053 1.24389 37.4623 0.770396 38.4909 0.242434C39.2037 -0.126301 39.4467 -0.0843993 39.9934 0.477084C41.0787 1.58748 41.0868 1.65033 40.1716 2.90739C39.7909 3.43116 39.4224 3.95912 39.0296 4.47032C38.8595 4.69659 38.8554 4.83487 39.1065 5.00247C40.1108 5.67709 41.103 6.36428 42.0952 7.05985C42.3139 7.2107 42.4758 7.18975 42.6783 7.04728C43.1683 6.69531 43.6665 6.35171 44.1727 6.0165C44.687 5.6729 45.0312 5.70643 45.4686 6.1422C45.9464 6.61988 46.4162 7.10594 46.8779 7.60038C47.3274 8.08225 47.3355 8.5306 46.89 8.9999C45.8776 10.0642 44.8611 11.1285 43.8204 12.1719C42.9861 13.0099 41.8927 13.1314 40.8398 12.4819C38.9243 11.3045 37.0331 10.0893 35.1337 8.89096C32.7647 7.39507 30.3996 5.89917 28.0306 4.39909C27.82 4.265 27.5973 4.13092 27.4231 3.95493C27.1113 3.63648 27.087 3.24679 27.3178 2.86967C28.0387 1.68804 29.529 0.85001 30.8978 0.85001ZM38.418 2.38361C38.3978 2.36266 38.3816 2.33752 38.3614 2.31657C38.2156 2.38361 38.0657 2.45066 37.924 2.52189C36.9885 3.00376 36.0409 3.47306 35.1175 3.98007C34.587 4.27338 34.1254 4.25662 33.6273 3.90884C33.117 3.55267 32.5824 3.23422 32.0438 2.93253C31.323 2.52608 30.5819 2.53027 29.8408 2.88225C29.7112 2.9451 29.533 2.99957 29.5209 3.17556C29.5128 3.33897 29.6869 3.36831 29.7962 3.43954C33.7082 5.91593 37.6243 8.39652 41.5363 10.8687C42.0709 11.2039 42.3989 11.1704 42.8322 10.7304C43.5207 10.0307 44.197 9.32255 44.8773 8.61441C45.011 8.47613 45.2094 8.35042 44.9907 8.1074C44.7963 7.8937 44.6303 7.78475 44.359 7.99426C43.958 8.30014 43.5207 8.55574 43.1198 8.86163C42.6257 9.24293 42.1721 9.23874 41.6619 8.8742C40.2485 7.87274 38.8149 6.90481 37.3935 5.92012C36.6362 5.39216 36.5633 4.96895 37.0978 4.21891C37.5271 3.60715 37.9766 2.99538 38.418 2.38361Z" fill="#FF8400"/>
<path d="M25.5201 9.5071C27.1481 9.5071 28.4318 10.0644 29.5171 11.1287C30.2177 11.8159 30.4486 11.8243 31.218 11.2041C32.2466 10.3787 33.6235 10.4583 34.5833 11.4136C35.4945 12.3187 36.3449 13.2866 37.3412 14.0995C39.4794 15.851 41.9173 16.865 44.6104 17.2422C44.9748 17.2924 45.0761 17.1793 44.9262 16.8231C44.6468 16.1611 44.3917 15.4907 44.1001 14.8328C43.9786 14.5604 43.9948 14.397 44.2783 14.2588C45.7402 13.5422 45.3515 13.4249 45.9711 14.8244C47.0766 17.3302 47.7084 19.9783 47.923 22.7271C47.9514 23.0707 47.8582 23.2132 47.5302 23.2048C47.4492 23.2048 47.3642 23.209 47.2791 23.2132C46.2464 23.2634 46.2464 23.2634 46.1452 22.1782C46.0602 21.2857 45.9022 20.4099 45.72 19.5384C45.6552 19.2325 45.5297 19.09 45.1935 19.0607C41.237 18.7255 37.815 17.15 34.968 14.2713C34.4821 13.7769 34.0083 13.2699 33.5182 12.7796C33.0282 12.2936 32.6476 12.2852 32.113 12.7252C30.9426 13.6973 29.6427 13.6512 28.5574 12.5953C26.7188 10.8102 24.6251 10.7809 22.7258 12.524C22.0859 13.1148 21.361 13.492 20.5066 13.6009C20.1218 13.6512 19.9355 13.5087 19.9841 13.0939C19.9922 13.0101 19.9841 12.9221 19.9841 12.8341C19.9841 12.0044 19.9801 12.0003 20.7576 11.7363C21.1464 11.6022 21.4582 11.3466 21.7498 11.0658C22.8513 10.0225 24.1432 9.49034 25.5201 9.5071Z" fill="#FF8400"/>
<path d="M0.000153611 24.8516C0.18239 16.7478 3.27231 10.1315 9.4481 5.09073C9.97051 4.66333 9.97861 4.6759 10.3593 5.21224C10.9748 6.07961 10.9708 6.07542 10.1568 6.75423C5.5118 10.6427 2.7418 15.65 1.91566 21.7634C1.31631 26.2134 1.96021 30.5041 3.80687 34.5812C4.00936 35.0295 3.90406 35.2055 3.51529 35.4025C2.51097 35.9095 2.50287 35.9304 2.0574 34.8787C0.696703 31.69 -0.0119955 28.3546 0.000153611 24.8516Z" fill="#FF8400"/>
<path d="M25.5082 49.632C24.7954 49.6487 24.7954 49.6445 24.7792 48.949C24.7549 47.8721 24.759 47.8972 25.8079 47.8218C27.371 47.7087 28.9059 47.4237 30.4002 46.9293C30.8497 46.7827 31.0522 46.8748 31.1818 47.3567C31.5341 48.6347 31.6921 48.3875 30.4448 48.7604C28.8127 49.2507 27.1402 49.5063 25.5082 49.632Z" fill="#FF8400"/>
<path d="M25.2109 1.81791C23.7975 1.68382 22.2465 1.78438 20.7036 2.03579C20.254 2.10703 20.0475 1.9897 19.9827 1.49107C19.841 0.363914 19.8207 0.384864 20.9182 0.208877C22.5178 -0.046724 24.1256 -0.00482176 25.7292 0.0496505C26.5513 0.0789818 26.5513 0.116693 26.446 0.963109C26.3407 1.85981 26.3407 1.85981 25.2109 1.81791Z" fill="#FF8400"/>
<path d="M9.60598 33.504C9.60598 30.5458 9.61813 27.5875 9.59384 24.6292C9.58979 24.1138 9.72748 23.9379 10.2377 23.9588C11.4243 24.0091 11.2664 23.8289 11.2704 25.0399C11.2745 30.8014 11.2745 36.5629 11.2704 42.3244C11.2704 43.0367 11.2664 43.0409 10.586 43.0367C9.47235 43.0283 9.60599 43.1624 9.60194 42.0185C9.60194 39.1817 9.60598 36.345 9.60598 33.504Z" fill="#FF8400"/>
<path d="M16.0654 33.5039C16.0654 36.4622 16.0532 39.4204 16.0775 42.3787C16.0816 42.8941 15.9439 43.0701 15.4336 43.0491C14.2511 43.003 14.405 43.179 14.405 41.9639C14.401 36.2024 14.401 30.4409 14.405 24.6794C14.405 23.9712 14.4091 23.9629 15.0894 23.967C16.2031 23.9754 16.0694 23.8413 16.0694 24.9853C16.0694 27.8304 16.0654 30.6671 16.0654 33.5039Z" fill="#FF8400"/>
<path d="M20.8544 33.5587C20.8544 36.5002 20.8423 39.4417 20.8666 42.3832C20.8706 42.9028 20.7289 43.0746 20.2227 43.0536C19.0402 43.0075 19.1941 43.1835 19.1941 41.9683C19.19 36.2069 19.19 30.4454 19.1941 24.6839C19.1941 23.9757 19.1981 23.9673 19.8785 23.9757C20.9921 23.9841 20.8544 23.85 20.8585 24.9981C20.8585 27.8474 20.8544 30.701 20.8544 33.5587Z" fill="#FF8400"/>
<path d="M40.0195 32.8587C40.0235 36.1061 37.5248 38.6956 34.3904 38.6956C31.3045 38.6956 28.7775 36.0809 28.7734 32.8796C28.7694 29.6364 31.341 26.9715 34.4471 26.9966C37.5451 27.026 40.0154 29.6239 40.0195 32.8587ZM31.4543 35.5236C31.4422 34.518 31.5596 33.6464 31.8188 32.8C31.8674 32.6366 31.7824 32.5402 31.6528 32.4732C31.3855 32.3349 31.1182 32.2008 30.8509 32.0668C30.6808 31.9829 30.5553 32.0123 30.531 32.226C30.4055 33.4076 30.5918 34.4971 31.4543 35.5236ZM34.4349 28.8445C33.6088 28.79 32.8596 29.0247 32.1914 29.5066C31.8958 29.7203 31.4179 29.9423 31.4624 30.2817C31.511 30.6589 32.0658 30.6672 32.3858 30.8642C32.5599 30.9689 32.6895 30.9186 32.8029 30.7385C33.2524 30.0303 33.8153 29.4269 34.4349 28.8445ZM37.4398 30.2692C37.3386 30.9941 37.2859 31.5933 37.1685 32.1799C36.97 33.1939 36.9579 33.1813 37.8691 33.6045C38.1363 33.7303 38.2578 33.7135 38.2983 33.3908C38.436 32.2595 38.1566 31.258 37.4398 30.2692ZM34.281 36.8687C35.2732 36.9441 35.9941 36.655 36.6582 36.1815C36.9417 35.9804 37.3629 35.7583 37.3426 35.4273C37.3224 35.1004 36.8242 35.0837 36.5489 34.9077C36.399 34.8113 36.2127 34.6982 36.0629 34.9119C35.5769 35.5991 35.0586 36.2569 34.281 36.8687ZM35.666 30.7133C35.6498 30.6002 35.6579 30.4493 35.6012 30.3404C35.5607 30.2566 35.4554 30.332 35.3907 30.3907C35.0059 30.7385 34.6374 31.1072 34.3458 31.543C34.2567 31.6771 34.2405 31.8028 34.4025 31.8782C34.7022 32.0123 35.01 32.3224 35.3016 32.2218C35.5729 32.1254 35.5162 31.6938 35.5688 31.3963C35.6053 31.1742 35.6336 30.9564 35.666 30.7133ZM33.1309 35.4985C33.5318 35.289 33.7667 35.0041 34.0097 34.7401C34.6982 33.9942 34.6739 33.9356 33.7789 33.5124C33.4832 33.3741 33.4063 33.483 33.3375 33.7428C33.1998 34.275 33.2119 34.8239 33.1309 35.4985Z" fill="#FF8400"/>
<path d="M27.4456 38.5115C27.5671 38.5659 27.7048 38.6162 27.8384 38.6833C29.9037 39.7099 31.961 40.7532 34.0344 41.7547C34.5001 41.9809 34.5447 42.2072 34.322 42.6597C33.836 43.6319 33.8562 43.6444 32.9046 43.1709C30.9607 42.203 29.0209 41.2225 27.069 40.2755C26.6437 40.0702 26.5668 39.8523 26.8057 39.4543C26.9475 39.2238 27.0446 38.964 27.1621 38.7168C27.2147 38.6078 27.2836 38.5157 27.4456 38.5115Z" fill="#FF8400"/>
</svg>
